<?xml version="1.0" encoding="utf-8"?>
<!-- Generator: Adobe Illustrator 19.2.1, SVG Export Plug-In . SVG Version: 6.00 Build 0)  -->
<svg version="1.1" id="Layer_1" xmlns="http://www.w3.org/2000/svg" xmlns:xlink="http://www.w3.org/1999/xlink" x="0px" y="0px"
	 viewBox="0 0 1052.9 364.4" style="enable-background:new 0 0 1052.9 364.4;" xml:space="preserve">
<style type="text/css">
	.st0{fill:none;}
	.st1{fill:none;stroke:#000000;stroke-width:1.44;stroke-linecap:round;stroke-linejoin:round;}
	.st2{fill:none;stroke:#000000;stroke-width:0.96;stroke-linecap:round;stroke-linejoin:round;}
	.st3{fill:none;stroke:#000000;stroke-width:0.72;stroke-linecap:round;stroke-linejoin:round;}
	.st4{font-family:'ArialMT';}
	.st5{font-size:19.8px;}
</style>
<polyline class="st0" points="695.6,339.7 985.9,339.7 985.9,63 695.6,63 695.6,339.7 "/>
<polyline class="st1" points="768.3,250.3 768.3,180 793.2,180 793.2,250.3 768.3,250.3 "/>
<polyline class="st1" points="888.3,250.3 888.3,180 913.2,180 913.2,250.3 888.3,250.3 "/>
<polyline class="st1" points="926.4,264.8 926.4,230.2 936,230.2 936,204.2 926.4,204.2 926.4,169.5 857.3,169.5 857.3,158.2 
	824.3,158.2 824.3,169.5 755.1,169.5 755.1,204.2 745.5,204.2 745.5,230.2 755.1,230.2 755.1,264.8 806.7,264.8 806.7,260.4 
	874.8,260.4 874.8,264.8 926.4,264.8 "/>
<polyline class="st2" points="940.7,217.2 940.9,219.9 941.6,222.4 942.7,224.8 943.4,225.8 "/>
<polyline class="st2" points="946.4,229.2 948.3,230.5 950.7,231.6 953.4,232.3 954.8,232.4 "/>
<polyline class="st2" points="959.4,232 961.2,231.6 963.7,230.5 965.8,228.9 967.2,227.6 "/>
<polyline class="st2" points="969.7,223.9 970.4,222.4 971,219.9 971.3,217.2 971.1,214.9 "/>
<polyline class="st2" points="969.7,210.6 969.2,209.6 967.8,207.3 965.8,205.5 963.7,204 "/>
<polyline class="st2" points="959.4,202.3 958.7,202.2 956,201.9 953.4,202.2 950.7,202.8 950.4,203 "/>
<polyline class="st2" points="946.4,205.3 946.2,205.5 944.3,207.3 942.7,209.6 941.6,212 941.4,212.7 "/>
<polyline class="st2" points="813.6,217.2 813.8,220.8 814.4,224.2 815,225.8 "/>
<polyline class="st2" points="816.7,229.9 817.2,230.8 819.2,233.7 821.5,236.5 822,236.8 "/>
<polyline class="st2" points="825.3,239.6 827.1,240.8 830.4,242.4 833.1,243.3 "/>
<polyline class="st2" points="837.5,244.2 840.7,244.4 844.3,244.2 846.2,243.8 "/>
<polyline class="st2" points="850.4,242.6 851.1,242.4 854.4,240.8 857.4,238.8 858,238.3 "/>
<polyline class="st2" points="861.1,235.2 862.3,233.7 864.3,230.8 865.8,227.8 "/>
<polyline class="st2" points="867.2,223.8 867.7,220.8 867.9,217.2 867.8,215 "/>
<polyline class="st2" points="867.2,210.7 867.1,210.2 865.9,206.8 864.3,203.6 863.7,202.6 "/>
<polyline class="st2" points="861.1,199.2 860,198 857.4,195.6 854.4,193.6 "/>
<polyline class="st2" points="850.4,191.8 847.8,190.9 844.3,190.2 841.9,190 "/>
<polyline class="st2" points="837.5,190.2 837.2,190.2 833.7,190.9 830.4,192.1 829,192.7 "/>
<polyline class="st2" points="825.3,194.8 824.1,195.6 821.5,198 819.2,200.6 819,200.8 "/>
<polyline class="st2" points="816.7,204.6 815.6,206.8 814.4,210.2 813.9,212.8 "/>
<line class="st2" x1="813.6" y1="217.2" x2="813.6" y2="217.2"/>
<polyline class="st2" points="710.3,217.2 710.5,219.9 711.1,222.4 712.3,224.8 712.9,225.8 "/>
<polyline class="st2" points="716,229.2 717.8,230.5 720.3,231.6 722.8,232.3 724.4,232.4 "/>
<polyline class="st2" points="729,232 730.8,231.6 733.2,230.5 735.3,228.9 736.7,227.6 "/>
<polyline class="st2" points="739.3,223.9 739.9,222.4 740.6,219.9 740.8,217.2 740.6,214.9 "/>
<polyline class="st2" points="739.3,210.6 738.8,209.6 737.3,207.3 735.3,205.5 733.2,204 "/>
<polyline class="st2" points="729,202.3 728.1,202.2 725.5,201.9 722.8,202.2 720.3,202.8 720,203 "/>
<polyline class="st2" points="716,205.3 715.7,205.5 713.7,207.3 712.3,209.6 711.1,212 711,212.7 "/>
<polyline class="st1" points="976.9,72 704.6,72 704.6,330.7 976.9,330.7 976.9,72 "/>
<polyline class="st0" points="394.4,339.7 630.3,339.7 630.3,63 394.4,63 394.4,339.7 "/>
<line class="st2" x1="403.4" y1="180" x2="410.4" y2="180"/>
<line class="st2" x1="414.9" y1="180" x2="423.9" y2="180"/>
<line class="st2" x1="428.4" y1="180" x2="437.4" y2="180"/>
<polyline class="st2" points="441.9,180 448.9,180 448.9,185.8 "/>
<line class="st2" x1="448.9" y1="190.4" x2="448.9" y2="199.4"/>
<line class="st2" x1="448.9" y1="204" x2="448.9" y2="213"/>
<line class="st2" x1="448.9" y1="217.4" x2="448.9" y2="226.4"/>
<line class="st2" x1="448.9" y1="231" x2="448.9" y2="240"/>
<line class="st2" x1="448.9" y1="244.4" x2="448.9" y2="250.3"/>
<line class="st2" x1="403.4" y1="250.3" x2="410.4" y2="250.3"/>
<line class="st2" x1="414.9" y1="250.3" x2="423.9" y2="250.3"/>
<line class="st2" x1="428.4" y1="250.3" x2="437.4" y2="250.3"/>
<line class="st2" x1="441.9" y1="250.3" x2="448.9" y2="250.3"/>
<line class="st2" x1="460.2" y1="260.4" x2="454.3" y2="260.4"/>
<line class="st2" x1="449.9" y1="260.4" x2="440.9" y2="260.4"/>
<line class="st2" x1="436.3" y1="260.4" x2="427.3" y2="260.4"/>
<line class="st2" x1="422.9" y1="260.4" x2="413.9" y2="260.4"/>
<line class="st2" x1="409.3" y1="260.4" x2="403.4" y2="260.4"/>
<polyline class="st1" points="460.2,158.2 403.4,158.2 403.4,169.5 460.2,169.5 "/>
<polyline class="st1" points="460.2,204.2 403.4,204.2 403.4,169.5 "/>
<polyline class="st1" points="460.2,230.2 403.4,230.2 403.4,204.2 "/>
<polyline class="st1" points="460.2,264.8 403.4,264.8 403.4,230.2 "/>
<polyline class="st1" points="621.3,189.9 621.3,190.3 621.3,191 621.3,192.3 621.3,194.1 621.3,196.3 621.3,198.9 621.3,201.9 
	621.3,202.2 621.3,202.8 621.3,204 621.3,205.5 621.3,207.3 621.3,209.6 621.3,212 621.3,214.5 621.3,217.2 621.3,219.9 
	621.3,222.4 621.3,224.8 621.3,227 621.3,228.9 621.3,230.5 621.3,231.6 621.3,232.3 621.3,232.5 621.3,235.5 621.3,238.2 
	621.3,240.3 621.3,242.1 621.3,243.4 621.3,244.2 621.3,244.4 "/>
<polyline class="st1" points="460.2,72 460.2,330.7 560,330.7 560,72 460.2,72 "/>
<line class="st1" x1="560" y1="201.9" x2="621.3" y2="201.9"/>
<line class="st1" x1="560" y1="232.5" x2="621.3" y2="232.5"/>
<line class="st1" x1="560" y1="189.9" x2="621.3" y2="189.9"/>
<line class="st1" x1="560" y1="244.4" x2="621.3" y2="244.4"/>
<polyline class="st0" points="-8.3,372.7 323.5,372.7 323.5,-8.3 -8.3,-8.3 -8.3,372.7 "/>
<line class="st1" x1="34.6" y1="188.9" x2="34.6" y2="246.4"/>
<line class="st2" x1="34.6" y1="188.9" x2="42.7" y2="184.1"/>
<line class="st2" x1="46.7" y1="181.8" x2="54.5" y2="177.4"/>
<polyline class="st2" points="58.3,175.1 66.6,170.4 66.6,176.6 "/>
<line class="st2" x1="66.6" y1="181.1" x2="66.6" y2="190.1"/>
<line class="st2" x1="66.6" y1="194.6" x2="66.6" y2="203.6"/>
<line class="st2" x1="66.6" y1="208.1" x2="66.6" y2="217.1"/>
<line class="st2" x1="66.6" y1="221.6" x2="66.6" y2="227.9"/>
<line class="st2" x1="34.6" y1="246.4" x2="42.7" y2="241.6"/>
<line class="st2" x1="46.7" y1="239.4" x2="54.5" y2="234.8"/>
<line class="st2" x1="58.3" y1="232.6" x2="66.6" y2="227.9"/>
<line class="st1" x1="16.9" y1="178.7" x2="34.6" y2="188.9"/>
<line class="st2" x1="16.9" y1="178.7" x2="25.1" y2="174"/>
<line class="st2" x1="29" y1="171.7" x2="36.8" y2="167.2"/>
<polyline class="st2" points="40.7,165 49,160.2 55.8,164.2 "/>
<line class="st2" x1="59.8" y1="166.4" x2="66.6" y2="170.4"/>
<polyline class="st1" points="34.6,226.1 16.9,236.2 16.9,178.7 "/>
<line class="st2" x1="34.6" y1="226.1" x2="39.8" y2="223"/>
<polyline class="st2" points="43.7,220.8 49,217.7 49,211.4 "/>
<line class="st2" x1="49" y1="207" x2="49" y2="198"/>
<line class="st2" x1="49" y1="193.4" x2="49" y2="184.4"/>
<line class="st2" x1="49" y1="180" x2="49" y2="171"/>
<line class="st2" x1="49" y1="166.4" x2="49" y2="160.2"/>
<line class="st1" x1="34.6" y1="246.4" x2="16.9" y2="236.2"/>
<line class="st2" x1="66.6" y1="227.9" x2="59.8" y2="223.9"/>
<line class="st2" x1="55.8" y1="221.6" x2="49" y2="217.7"/>
<line class="st1" x1="119.4" y1="237.7" x2="119.4" y2="295.2"/>
<line class="st2" x1="119.4" y1="237.7" x2="127.7" y2="232.9"/>
<line class="st2" x1="131.5" y1="230.8" x2="139.3" y2="226.2"/>
<polyline class="st2" points="143.3,224 151.4,219.2 151.4,225.5 "/>
<line class="st2" x1="151.4" y1="230" x2="151.4" y2="239"/>
<line class="st2" x1="151.4" y1="243.5" x2="151.4" y2="252.5"/>
<line class="st2" x1="151.4" y1="257" x2="151.4" y2="266"/>
<line class="st2" x1="151.4" y1="270.5" x2="151.4" y2="276.7"/>
<line class="st2" x1="119.4" y1="295.2" x2="127.7" y2="290.5"/>
<line class="st2" x1="131.5" y1="288.2" x2="139.3" y2="283.7"/>
<line class="st2" x1="143.3" y1="281.5" x2="151.4" y2="276.7"/>
<line class="st1" x1="101.8" y1="227.5" x2="119.4" y2="237.7"/>
<line class="st2" x1="101.8" y1="227.5" x2="110" y2="222.8"/>
<line class="st2" x1="113.9" y1="220.6" x2="121.7" y2="216.1"/>
<polyline class="st2" points="125.6,213.8 133.8,209 140.8,213 "/>
<line class="st2" x1="144.6" y1="215.3" x2="151.4" y2="219.2"/>
<polyline class="st1" points="119.4,274.9 101.8,285 101.8,227.5 "/>
<line class="st2" x1="119.4" y1="274.9" x2="124.7" y2="271.8"/>
<polyline class="st2" points="128.5,269.6 133.8,266.5 133.8,260.3 "/>
<line class="st2" x1="133.8" y1="255.8" x2="133.8" y2="246.8"/>
<line class="st2" x1="133.8" y1="242.3" x2="133.8" y2="233.3"/>
<line class="st2" x1="133.8" y1="228.8" x2="133.8" y2="219.8"/>
<line class="st2" x1="133.8" y1="215.3" x2="133.8" y2="209"/>
<line class="st1" x1="119.4" y1="295.2" x2="101.8" y2="285"/>
<line class="st2" x1="151.4" y1="276.7" x2="144.6" y2="272.8"/>
<line class="st2" x1="140.8" y1="270.5" x2="133.8" y2="266.5"/>
<polyline class="st2" points="125.9,272 132.4,268.3 132.4,264.6 "/>
<line class="st2" x1="122" y1="274.3" x2="114.2" y2="278.8"/>
<line class="st2" x1="110.3" y1="281" x2="102.5" y2="285.5"/>
<line class="st2" x1="98.6" y1="287.8" x2="92.2" y2="291.5"/>
<line class="st1" x1="92.2" y1="287.8" x2="92.2" y2="291.5"/>
<line class="st2" x1="132.4" y1="264.6" x2="125.9" y2="268.3"/>
<line class="st2" x1="122" y1="270.6" x2="114.2" y2="275"/>
<line class="st2" x1="110.3" y1="277.3" x2="102.5" y2="281.8"/>
<line class="st2" x1="98.6" y1="284" x2="92.2" y2="287.8"/>
<line class="st2" x1="132.4" y1="264.6" x2="127.8" y2="262"/>
<line class="st2" x1="123.8" y1="259.8" x2="116" y2="255.2"/>
<line class="st2" x1="112.2" y1="253" x2="104.4" y2="248.5"/>
<line class="st2" x1="100.4" y1="246.2" x2="92.6" y2="241.8"/>
<line class="st2" x1="88.7" y1="239.5" x2="84.2" y2="236.9"/>
<line class="st1" x1="44" y1="260" x2="92.2" y2="287.8"/>
<line class="st2" x1="84.2" y1="236.9" x2="77.8" y2="240.6"/>
<line class="st2" x1="73.9" y1="242.9" x2="66.1" y2="247.3"/>
<line class="st2" x1="62.2" y1="249.6" x2="54.4" y2="254"/>
<line class="st2" x1="50.5" y1="256.3" x2="44" y2="260"/>
<line class="st2" x1="84.2" y1="236.9" x2="84.2" y2="240.6"/>
<line class="st1" x1="44" y1="263.8" x2="44" y2="260"/>
<line class="st2" x1="84.2" y1="240.6" x2="79.4" y2="243.4"/>
<line class="st2" x1="75.5" y1="245.6" x2="67.7" y2="250.1"/>
<line class="st2" x1="63.8" y1="252.4" x2="56" y2="256.8"/>
<line class="st2" x1="52.1" y1="259.1" x2="47.3" y2="261.8"/>
<line class="st1" x1="47.3" y1="261.8" x2="44" y2="263.8"/>
<line class="st2" x1="84.2" y1="240.6" x2="79.6" y2="238"/>
<line class="st2" x1="75.7" y1="235.7" x2="67.9" y2="231.2"/>
<line class="st2" x1="64" y1="229" x2="56.2" y2="224.5"/>
<line class="st2" x1="52.3" y1="222.2" x2="47.6" y2="219.6"/>
<line class="st1" x1="7.6" y1="242.6" x2="44" y2="263.8"/>
<line class="st2" x1="47.6" y1="219.6" x2="41.3" y2="223.3"/>
<line class="st2" x1="37.4" y1="225.5" x2="29.6" y2="230"/>
<line class="st2" x1="25.7" y1="232.3" x2="17.9" y2="236.8"/>
<line class="st2" x1="13.9" y1="239" x2="7.6" y2="242.6"/>
<line class="st2" x1="47.6" y1="219.6" x2="47.6" y2="214.4"/>
<line class="st2" x1="47.6" y1="210" x2="47.6" y2="201"/>
<line class="st2" x1="47.6" y1="196.4" x2="47.6" y2="191.3"/>
<line class="st1" x1="7.6" y1="214.4" x2="7.6" y2="242.6"/>
<line class="st2" x1="47.6" y1="191.3" x2="41.3" y2="195"/>
<line class="st2" x1="37.4" y1="197.3" x2="29.6" y2="201.7"/>
<line class="st2" x1="25.7" y1="204" x2="17.9" y2="208.4"/>
<line class="st2" x1="13.9" y1="210.7" x2="7.6" y2="214.4"/>
<line class="st2" x1="47.6" y1="191.3" x2="40.9" y2="187.4"/>
<line class="st1" x1="0.7" y1="210.5" x2="7.6" y2="214.4"/>
<line class="st2" x1="40.9" y1="187.4" x2="34.4" y2="191"/>
<line class="st2" x1="30.6" y1="193.3" x2="22.8" y2="197.8"/>
<line class="st2" x1="18.8" y1="200" x2="11" y2="204.6"/>
<line class="st2" x1="7.2" y1="206.8" x2="0.7" y2="210.5"/>
<line class="st2" x1="40.9" y1="187.4" x2="40.9" y2="178.9"/>
<line class="st2" x1="40.9" y1="174.5" x2="40.9" y2="166.1"/>
<line class="st1" x1="0.7" y1="189.1" x2="0.7" y2="210.5"/>
<line class="st2" x1="40.9" y1="166.1" x2="32" y2="171.1"/>
<line class="st2" x1="28.1" y1="173.4" x2="20.3" y2="177.8"/>
<line class="st2" x1="16.4" y1="180.1" x2="7.6" y2="185.3"/>
<line class="st1" x1="7.6" y1="185.3" x2="0.7" y2="189.1"/>
<line class="st2" x1="40.9" y1="166.1" x2="47.6" y2="170"/>
<line class="st1" x1="7.6" y1="193.1" x2="0.7" y2="189.1"/>
<line class="st2" x1="47.6" y1="170" x2="41.3" y2="173.6"/>
<line class="st2" x1="37.4" y1="175.9" x2="29.6" y2="180.4"/>
<line class="st2" x1="25.7" y1="182.6" x2="17.9" y2="187.2"/>
<line class="st2" x1="13.9" y1="189.4" x2="7.6" y2="193.1"/>
<line class="st2" x1="47.6" y1="170" x2="47.6" y2="164.9"/>
<line class="st2" x1="47.6" y1="160.3" x2="47.6" y2="151.3"/>
<line class="st2" x1="47.6" y1="146.9" x2="47.6" y2="141.7"/>
<polyline class="st1" points="88.6,165.2 47.6,141.7 7.6,164.8 7.6,193.1 "/>
<line class="st2" x1="88.6" y1="165.2" x2="96.6" y2="169.9"/>
<line class="st1" x1="56.5" y1="193" x2="7.6" y2="164.8"/>
<line class="st2" x1="96.6" y1="169.9" x2="90.2" y2="173.5"/>
<line class="st2" x1="86.3" y1="175.8" x2="78.5" y2="180.4"/>
<line class="st2" x1="74.6" y1="182.5" x2="66.8" y2="187.1"/>
<line class="st2" x1="62.9" y1="189.2" x2="56.5" y2="193"/>
<line class="st2" x1="96.6" y1="169.9" x2="96.6" y2="160.6"/>
<polyline class="st1" points="119.9,174 96.6,160.6 56.5,183.7 56.5,193 "/>
<polyline class="st1" points="119.9,183.2 119.9,174 79.8,197 56.5,183.7 "/>
<polyline class="st1" points="168.8,211.4 119.9,183.2 79.8,206.4 79.8,197 "/>
<polyline class="st1" points="168.8,239.8 168.8,211.4 128.8,234.6 79.8,206.4 "/>
<polyline class="st1" points="175.7,243.6 168.8,239.8 128.8,262.8 128.8,234.6 "/>
<polyline class="st1" points="175.7,265 175.7,243.6 135.5,266.8 128.8,262.8 "/>
<polyline class="st1" points="175.7,265 135.5,288.1 135.5,266.8 "/>
<line class="st2" x1="175.7" y1="265" x2="168.8" y2="261.1"/>
<line class="st1" x1="128.8" y1="284.2" x2="135.5" y2="288.1"/>
<line class="st2" x1="168.8" y1="261.1" x2="162.4" y2="264.7"/>
<line class="st2" x1="158.5" y1="267" x2="150.7" y2="271.4"/>
<line class="st2" x1="146.8" y1="273.7" x2="139" y2="278.3"/>
<line class="st2" x1="135.1" y1="280.4" x2="128.8" y2="284.2"/>
<line class="st2" x1="168.8" y1="261.1" x2="168.8" y2="268.9"/>
<line class="st1" x1="168.8" y1="268.9" x2="168.8" y2="289.3"/>
<polyline class="st1" points="168.8,289.3 128.8,312.5 128.8,284.2 "/>
<line class="st2" x1="168.8" y1="289.3" x2="164.2" y2="286.7"/>
<line class="st2" x1="160.3" y1="284.4" x2="152.5" y2="280"/>
<line class="st2" x1="148.6" y1="277.7" x2="140.8" y2="273.2"/>
<line class="st2" x1="136.9" y1="271" x2="132.4" y2="268.3"/>
<line class="st1" x1="92.2" y1="291.5" x2="128.8" y2="312.5"/>
<path class="st1" d="M311.3,210.2c4.3-2.5,4.2-10.5,0-17.7s-11.1-11.3-15.4-8.9"/>
<polyline class="st2" points="311.3,210.1 310,210.7 308.5,210.8 307,210.7 305.3,210.2 303.6,209.4 301.9,208.2 301.8,208.1 "/>
<polyline class="st2" points="298.6,205 297.2,203.3 296,201.2 294.8,199.2 294.1,197.2 "/>
<polyline class="st2" points="293,192.8 292.9,192.6 292.8,190.6 292.9,188.8 293.4,187.1 294,185.6 295,184.4 296,183.6 "/>
<polyline class="st2" points="249.5,215.5 249.6,217.6 250.1,219.7 250.7,221.9 251.5,223.9 "/>
<polyline class="st2" points="253.6,227.6 253.9,228.2 255.5,230.2 257,231.8 258.6,233.2 259.4,233.8 "/>
<polyline class="st2" points="263.3,235.6 263.6,235.7 265.2,235.8 266.8,235.6 268,235.1 269,234.2 270,233 270.4,232.2 "/>
<polyline class="st2" points="271.2,228 271.1,226 270.6,223.9 270,221.6 269.2,219.7 "/>
<polyline class="st2" points="267.1,216 266.8,215.4 265.2,213.5 263.6,211.8 262.1,210.4 261.2,209.9 "/>
<polyline class="st2" points="257.4,208.1 257,208 255.5,207.8 253.9,208 252.7,208.6 251.5,209.4 250.7,210.6 250.3,211.4 "/>
<polyline class="st2" points="241.4,161 241.3,163.4 241,165.7 240.4,167.8 239.5,169.6 239.3,169.8 "/>
<polyline class="st2" points="236.3,173.2 235.8,173.5 234.1,174.2 232.4,174.7 230.5,174.8 228.5,174.6 227.5,174.4 "/>
<polyline class="st2" points="223.2,172.7 222.1,172.2 220,170.8 217.9,169.2 215.9,167.3 "/>
<polyline class="st2" points="212.8,163.9 211.9,162.8 210.1,160.4 208.6,157.8 207.7,156.4 "/>
<polyline class="st2" points="205.8,152.2 204.8,149.6 204,146.9 203.4,144.1 203.3,143.4 "/>
<polyline class="st2" points="202.9,138.8 203,136.4 203.4,134.2 204,132.1 204.8,130.3 205,130.1 "/>
<polyline class="st2" points="208.1,126.7 208.6,126.4 210.1,125.6 211.9,125.2 213.8,125 215.8,125.3 216.8,125.5 "/>
<polyline class="st2" points="221.2,127.2 222.1,127.7 224.3,129.1 226.4,130.7 228.5,132.5 "/>
<polyline class="st2" points="231.5,136 232.4,137 234.1,139.4 235.8,142.1 236.5,143.5 "/>
<polyline class="st2" points="238.6,147.7 239.5,150.2 240.4,153 241,155.8 241,156.5 "/>
<line class="st2" x1="241.4" y1="161" x2="241.4" y2="161"/>
<polyline class="st2" points="159.6,163.8 159.7,166.3 160.1,169.1 160.7,171.7 160.9,172.8 "/>
<polyline class="st2" points="162.5,177.1 162.5,177.4 163.8,180.1 165.2,182.8 166.7,185.2 "/>
<polyline class="st2" points="169.4,188.9 170.5,190.1 172.4,192.2 174.6,194.2 176,195.2 "/>
<polyline class="st2" points="179.9,197.6 181,198.2 183.1,199.1 185.2,199.6 187.2,199.8 188.6,199.7 "/>
<polyline class="st2" points="193,198.1 193.9,197.4 195.1,196.1 196.2,194.5 197,192.7 197.6,190.7 197.6,190.6 "/>
<polyline class="st2" points="198.1,186 198,183.4 197.6,180.7 197,178 196.7,177 "/>
<polyline class="st2" points="195.2,172.7 195.1,172.4 193.9,169.7 192.5,167 190.9,164.5 "/>
<polyline class="st2" points="188.2,160.9 187.2,159.6 185.2,157.6 183.1,155.6 181.7,154.6 "/>
<polyline class="st2" points="177.8,152 176.6,151.6 174.6,150.7 172.4,150.2 170.5,150 169,150.1 "/>
<polyline class="st2" points="164.8,151.7 163.8,152.3 162.5,153.6 161.5,155.3 160.7,157.1 160.1,159.1 160.1,159.2 "/>
<line class="st2" x1="159.6" y1="163.8" x2="159.6" y2="163.8"/>
<line class="st1" x1="275" y1="323" x2="275" y2="111.6"/>
<line class="st2" x1="82.6" y1="212.2" x2="89.2" y2="216"/>
<line class="st2" x1="93" y1="218.2" x2="100.8" y2="222.7"/>
<line class="st2" x1="104.8" y1="224.9" x2="112.6" y2="229.4"/>
<line class="st2" x1="116.4" y1="231.7" x2="124.2" y2="236.2"/>
<line class="st2" x1="128.2" y1="238.4" x2="136" y2="242.9"/>
<line class="st2" x1="139.8" y1="245.2" x2="147.6" y2="249.6"/>
<line class="st2" x1="151.6" y1="251.9" x2="159.4" y2="256.4"/>
<line class="st2" x1="163.2" y1="258.6" x2="171" y2="263.2"/>
<line class="st2" x1="175" y1="265.3" x2="182.8" y2="269.9"/>
<line class="st2" x1="186.6" y1="272.2" x2="194.4" y2="276.6"/>
<line class="st2" x1="198.4" y1="278.9" x2="206.2" y2="283.3"/>
<line class="st2" x1="210" y1="285.6" x2="217.8" y2="290"/>
<line class="st2" x1="221.8" y1="292.3" x2="229.6" y2="296.8"/>
<line class="st2" x1="233.4" y1="299" x2="241.3" y2="303.6"/>
<line class="st2" x1="245.2" y1="305.8" x2="253" y2="310.3"/>
<line class="st2" x1="256.9" y1="312.6" x2="264.7" y2="317"/>
<line class="st2" x1="268.6" y1="319.3" x2="275" y2="323"/>
<line class="st2" x1="82.6" y1="0.7" x2="82.6" y2="9.7"/>
<line class="st2" x1="82.6" y1="14.2" x2="82.6" y2="23.2"/>
<line class="st2" x1="82.6" y1="27.7" x2="82.6" y2="36.7"/>
<line class="st2" x1="82.6" y1="41.2" x2="82.6" y2="50.2"/>
<line class="st2" x1="82.6" y1="54.7" x2="82.6" y2="63.7"/>
<line class="st2" x1="82.6" y1="68.2" x2="82.6" y2="77.2"/>
<line class="st2" x1="82.6" y1="81.7" x2="82.6" y2="90.7"/>
<line class="st2" x1="82.6" y1="95.2" x2="82.6" y2="104.3"/>
<line class="st2" x1="82.6" y1="108.7" x2="82.6" y2="117.7"/>
<line class="st2" x1="82.6" y1="122.3" x2="82.6" y2="131.3"/>
<line class="st2" x1="82.6" y1="135.7" x2="82.6" y2="144.7"/>
<line class="st2" x1="82.6" y1="149.3" x2="82.6" y2="158.3"/>
<line class="st2" x1="82.6" y1="162.7" x2="82.6" y2="171.7"/>
<line class="st2" x1="82.6" y1="176.3" x2="82.6" y2="185.3"/>
<line class="st2" x1="82.6" y1="189.7" x2="82.6" y2="198.7"/>
<line class="st2" x1="82.6" y1="203.3" x2="82.6" y2="212.2"/>
<line class="st1" x1="275" y1="111.6" x2="82.6" y2="0.7"/>
<polyline class="st2" points="86.5,121.7 86.6,123.7 87,125.9 87.7,128 88.4,130 "/>
<polyline class="st2" points="90.6,133.8 91,134.4 92.4,136.3 94,137.9 95.6,139.3 96.5,139.9 "/>
<polyline class="st2" points="100.3,141.7 100.7,141.8 102.2,142 103.7,141.7 105,141.2 106.1,140.4 107,139.2 107.4,138.4 "/>
<polyline class="st2" points="108.1,134.2 108,132.1 107.6,130 107,127.8 106.2,125.9 "/>
<polyline class="st2" points="104.2,122.2 103.7,121.4 102.2,119.6 100.7,118 99,116.5 98.2,116 "/>
<polyline class="st2" points="94.3,114.2 94,114.1 92.4,114 91,114.1 89.6,114.7 88.6,115.6 87.7,116.8 87.4,117.5 "/>
<line class="st2" x1="86.5" y1="121.7" x2="86.5" y2="121.7"/>
<polyline class="st1" points="275,323 204.5,363.7 12,252.8 "/>
<line class="st2" x1="82.6" y1="212.2" x2="78.5" y2="214.6"/>
<line class="st2" x1="74.6" y1="216.8" x2="66.8" y2="221.3"/>
<line class="st2" x1="62.9" y1="223.6" x2="55.1" y2="228"/>
<line class="st2" x1="51.2" y1="230.3" x2="43.4" y2="234.7"/>
<line class="st2" x1="39.5" y1="237" x2="31.7" y2="241.4"/>
<line class="st2" x1="27.7" y1="243.7" x2="19.9" y2="248.3"/>
<line class="st2" x1="16.1" y1="250.4" x2="12" y2="252.8"/>
<line class="st1" x1="12" y1="41.4" x2="12" y2="162.2"/>
<line class="st2" x1="12" y1="162.2" x2="12" y2="167.8"/>
<line class="st2" x1="12" y1="172.2" x2="12" y2="181.2"/>
<line class="st2" x1="12" y1="185.8" x2="12" y2="194.8"/>
<line class="st2" x1="12" y1="199.2" x2="12" y2="208.2"/>
<line class="st2" x1="12" y1="212.8" x2="12" y2="221.8"/>
<line class="st2" x1="12" y1="226.2" x2="12" y2="235.2"/>
<line class="st2" x1="12" y1="239.8" x2="12" y2="245.3"/>
<line class="st1" x1="12" y1="245.3" x2="12" y2="252.8"/>
<polyline class="st1" points="82.6,0.7 12,41.4 204.5,152.3 275,111.6 "/>
<line class="st1" x1="204.5" y1="363.7" x2="204.5" y2="152.3"/>
<polyline class="st2" points="151.4,109.2 151.3,111.1 151,112.8 150.4,114.2 149.4,115.4 148.3,116.3 147.8,116.5 "/>
<polyline class="st2" points="143.6,116.8 142.3,116.4 140.6,115.6 139,114.4 137.3,113 136.6,112.2 "/>
<polyline class="st2" points="133.9,108.8 133,107.4 131.9,105.4 131,103.1 130.3,101 "/>
<polyline class="st2" points="129.8,96.7 130,94.9 130.3,93.2 131,91.8 131.9,90.6 133,89.8 133.4,89.5 "/>
<polyline class="st2" points="137.6,89.3 139,89.6 140.6,90.5 142.3,91.7 144,93 144.8,93.8 "/>
<polyline class="st2" points="147.5,97.2 148.3,98.5 149.4,100.7 150.4,102.8 151,105 "/>
<line class="st2" x1="252.7" y1="208.6" x2="262" y2="203.2"/>
<line class="st2" x1="265.8" y1="201" x2="275" y2="195.6"/>
<line class="st1" x1="275" y1="195.6" x2="296" y2="183.6"/>
<line class="st2" x1="268" y1="235.1" x2="275" y2="231"/>
<line class="st1" x1="275" y1="231" x2="311.3" y2="210.1"/>
<line class="st2" x1="165.2" y1="151.3" x2="173.3" y2="146.6"/>
<line class="st2" x1="177.1" y1="144.5" x2="184.9" y2="139.9"/>
<line class="st2" x1="188.9" y1="137.6" x2="196.7" y2="133.2"/>
<line class="st2" x1="200.5" y1="130.9" x2="208.6" y2="126.4"/>
<line class="st2" x1="192.5" y1="198.5" x2="200.4" y2="193.9"/>
<line class="st2" x1="204.4" y1="191.6" x2="212.2" y2="187.1"/>
<line class="st2" x1="216" y1="184.9" x2="223.8" y2="180.4"/>
<line class="st2" x1="227.8" y1="178.1" x2="235.8" y2="173.5"/>
<line class="st2" x1="89.6" y1="114.7" x2="97.7" y2="110"/>
<line class="st2" x1="101.6" y1="107.9" x2="109.4" y2="103.3"/>
<line class="st2" x1="113.3" y1="101" x2="121.1" y2="96.6"/>
<line class="st2" x1="125" y1="94.3" x2="133" y2="89.8"/>
<line class="st2" x1="105" y1="141.2" x2="113" y2="136.6"/>
<line class="st2" x1="116.9" y1="134.4" x2="124.7" y2="129.8"/>
<line class="st2" x1="128.6" y1="127.7" x2="136.4" y2="123.1"/>
<line class="st2" x1="140.3" y1="120.8" x2="148.3" y2="116.3"/>
<line class="st3" x1="918.8" y1="180.1" x2="1019.1" y2="180.1"/>
<line class="st3" x1="918.8" y1="250.4" x2="1019.1" y2="250.4"/>
<line class="st3" x1="1013.5" y1="240.4" x2="1013.5" y2="189.9"/>
<line class="st3" x1="1013.5" y1="180.1" x2="1013.5" y2="121.2"/>
<polygon points="1011.8,240.4 1015.2,240.4 1013.5,250.4 "/>
<polygon class="st0" points="1011.8,240.4 1015.2,240.4 1013.5,250.4 "/>
<polygon points="1011.8,189.9 1015.2,189.9 1013.5,180.1 "/>
<polygon class="st0" points="1011.8,189.9 1015.2,189.9 1013.5,180.1 "/>
<text transform="matrix(6.123234e-017 -1 1 6.123234e-017 1009.05 149.2402)" class="st4 st5">3.1</text>
<line class="st3" x1="705.3" y1="324.9" x2="705.3" y2="45.7"/>
<line class="st3" x1="977.3" y1="324.9" x2="977.3" y2="45.7"/>
<line class="st3" x1="715.1" y1="51.3" x2="967.3" y2="51.3"/>
<polygon points="715.1,49.6 715.1,53 705.3,51.3 "/>
<polygon class="st0" points="715.1,49.6 715.1,53 705.3,51.3 "/>
<polygon points="967.3,49.6 967.3,53 977.3,51.3 "/>
<polygon class="st0" points="967.3,49.6 967.3,53 977.3,51.3 "/>
<text transform="matrix(1 0 0 1 840.25 47.12)" class="st4 st5">12</text>
<line class="st3" x1="841.2" y1="222.9" x2="841.2" y2="320.2"/>
<line class="st3" x1="726" y1="222.9" x2="726" y2="320.2"/>
<line class="st3" x1="831.4" y1="314.5" x2="736" y2="314.5"/>
<polygon points="831.4,312.9 831.4,316.2 841.2,314.5 "/>
<polygon class="st0" points="831.4,312.9 831.4,316.2 841.2,314.5 "/>
<polygon points="736,312.9 736,316.2 726,314.5 "/>
<polygon class="st0" points="736,312.9 736,316.2 726,314.5 "/>
<text transform="matrix(1 0 0 1 771.25 310.04)" class="st4 st5">5.1</text>
<line class="st3" x1="982.9" y1="72.1" x2="1052.5" y2="72.1"/>
<line class="st3" x1="847" y1="217.3" x2="1052.5" y2="217.3"/>
<line class="st3" x1="1046.9" y1="82" x2="1046.9" y2="207.3"/>
<polygon points="1045.2,82 1048.6,82 1046.9,72.1 "/>
<polygon class="st0" points="1045.2,82 1048.6,82 1046.9,72.1 "/>
<polygon points="1045.2,207.3 1048.6,207.3 1046.9,217.3 "/>
<polygon class="st0" points="1045.2,207.3 1048.6,207.3 1046.9,217.3 "/>
<text transform="matrix(6.123234e-017 -1 1 6.123234e-017 1042.45 158.3604)" class="st4 st5">6.4</text>
<line class="st3" x1="847" y1="217.3" x2="1052.5" y2="217.3"/>
<line class="st3" x1="982.9" y1="330.6" x2="1052.5" y2="330.6"/>
<line class="st3" x1="1046.9" y1="227.1" x2="1046.9" y2="320.7"/>
<polygon points="1045.2,227.1 1048.6,227.1 1046.9,217.3 "/>
<polygon class="st0" points="1045.2,227.1 1048.6,227.1 1046.9,217.3 "/>
<polygon points="1045.2,320.7 1048.6,320.7 1046.9,330.6 "/>
<polygon class="st0" points="1045.2,320.7 1048.6,320.7 1046.9,330.6 "/>
<text transform="matrix(6.123234e-017 -1 1 6.123234e-017 1042.45 279.4404)" class="st4 st5">5</text>
<line class="st3" x1="781.3" y1="260.2" x2="781.3" y2="228.7"/>
<line class="st3" x1="781.3" y1="219.7" x2="781.3" y2="210.7"/>
<line class="st3" x1="781.3" y1="201.7" x2="781.3" y2="170.1"/>
<line class="st3" x1="793.7" y1="256" x2="793.7" y2="286.3"/>
<line class="st3" x1="768.8" y1="256" x2="768.8" y2="286.3"/>
<line class="st3" x1="803.7" y1="280.6" x2="813.6" y2="280.6"/>
<line class="st3" x1="758.9" y1="280.6" x2="661.3" y2="280.6"/>
<line class="st3" x1="793.7" y1="280.6" x2="768.8" y2="280.6"/>
<polygon points="803.7,279 803.7,282.3 793.7,280.6 "/>
<polygon class="st0" points="803.7,279 803.7,282.3 793.7,280.6 "/>
<polygon points="758.9,279 758.9,282.3 768.8,280.6 "/>
<polygon class="st0" points="758.9,279 758.9,282.3 768.8,280.6 "/>
<text transform="matrix(1 0 0 1 663.37 276.44)" class="st4 st5">1.1</text>
<line class="st3" x1="560.5" y1="66.4" x2="560.5" y2="40.5"/>
<line class="st3" x1="460.7" y1="66.4" x2="460.7" y2="40.5"/>
<line class="st3" x1="550.6" y1="46.2" x2="470.6" y2="46.2"/>
<polygon points="550.6,44.5 550.6,47.8 560.5,46.2 "/>
<polygon class="st0" points="550.6,44.5 550.6,47.8 560.5,46.2 "/>
<polygon points="470.6,44.5 470.6,47.8 460.7,46.2 "/>
<polygon class="st0" points="470.6,44.5 470.6,47.8 460.7,46.2 "/>
<text transform="matrix(1 0 0 1 497.17 41.84)" class="st4 st5">4.4</text>
<line class="st3" x1="460.7" y1="66.4" x2="460.7" y2="40.5"/>
<line class="st3" x1="404" y1="152.6" x2="404" y2="40.5"/>
<line class="st3" x1="450.9" y1="46.2" x2="414" y2="46.2"/>
<polygon points="450.9,44.5 450.9,47.8 460.7,46.2 "/>
<polygon class="st0" points="450.9,44.5 450.9,47.8 460.7,46.2 "/>
<polygon points="414,44.5 414,47.8 404,46.2 "/>
<polygon class="st0" points="414,44.5 414,47.8 404,46.2 "/>
<text transform="matrix(1 0 0 1 418.69 41.72)" class="st4 st5">2.5</text>
<line class="st3" x1="560.5" y1="66.4" x2="560.5" y2="40.5"/>
<line class="st3" x1="621.7" y1="184.4" x2="621.7" y2="40.5"/>
<line class="st3" x1="570.4" y1="46.2" x2="611.8" y2="46.2"/>
<polygon points="570.4,44.5 570.4,47.8 560.5,46.2 "/>
<polygon class="st0" points="570.4,44.5 570.4,47.8 560.5,46.2 "/>
<polygon points="611.8,44.5 611.8,47.8 621.7,46.2 "/>
<polygon class="st0" points="611.8,44.5 611.8,47.8 621.7,46.2 "/>
<text transform="matrix(1 0 0 1 577.45 41.96)" class="st4 st5">2.7</text>
<line class="st3" x1="901.2" y1="260.2" x2="901.2" y2="228.7"/>
<line class="st3" x1="901.2" y1="219.7" x2="901.2" y2="210.7"/>
<line class="st3" x1="901.2" y1="201.7" x2="901.2" y2="170.1"/>
<line class="st3" x1="781.3" y1="164.5" x2="781.3" y2="120.3"/>
<line class="st3" x1="901.2" y1="164.5" x2="901.2" y2="120.3"/>
<line class="st3" x1="791.2" y1="126" x2="891.3" y2="126"/>
<polygon points="791.2,124.3 791.2,127.6 781.3,126 "/>
<polygon class="st0" points="791.2,124.3 791.2,127.6 781.3,126 "/>
<polygon points="891.3,124.3 891.3,127.6 901.2,126 "/>
<polygon class="st0" points="891.3,124.3 891.3,127.6 901.2,126 "/>
<text transform="matrix(1 0 0 1 827.53 121.52)" class="st4 st5">5.3</text>
<line class="st3" x1="836.8" y1="217.3" x2="845.8" y2="217.3"/>
<line class="st3" x1="841.2" y1="221.7" x2="841.2" y2="212.7"/>
<line class="st3" x1="804.1" y1="217.3" x2="827.8" y2="217.3"/>
<line class="st3" x1="854.8" y1="217.3" x2="878.4" y2="217.3"/>
<line class="st3" x1="841.2" y1="254.4" x2="841.2" y2="230.7"/>
<line class="st3" x1="841.2" y1="203.7" x2="841.2" y2="180.1"/>
</svg>
