<svg id="Layer_1" data-name="Layer 1" xmlns="http://www.w3.org/2000/svg" xmlns:xlink="http://www.w3.org/1999/xlink" viewBox="0 0 543.9 221.11"><defs><style>.cls-1,.cls-12,.cls-13,.cls-14,.cls-3,.cls-5,.cls-6{fill:none;}.cls-2{clip-path:url(#clip-path);}.cls-12,.cls-3,.cls-5,.cls-6{stroke:#000;}.cls-3,.cls-5,.cls-6{stroke-linecap:round;}.cls-3,.cls-5{stroke-linejoin:round;}.cls-3{stroke-width:1.44px;}.cls-4{clip-path:url(#clip-path-2);}.cls-5{stroke-width:0.72px;}.cls-12,.cls-13,.cls-14,.cls-6{stroke-miterlimit:10;}.cls-12,.cls-6{stroke-width:0;}.cls-7{font-size:13.86px;}.cls-10,.cls-11,.cls-16,.cls-7,.cls-8,.cls-9{font-family:Arial;}.cls-8{font-size:13.86px;}.cls-9{font-size:13.86px;}.cls-10{font-size:13.86px;}.cls-11{font-size:19.8px;}.cls-11,.cls-16{font-weight:700;}.cls-13,.cls-14{stroke:#231f20;}.cls-14{stroke-width:2px;}.cls-15{fill:#231f20;}.cls-16{font-size:21px;}</style><clipPath id="clip-path" transform="translate(-25.38 -22.34)"><polyline class="cls-1" points="96.42 217.16 280.5 217.16 280.5 52.41 96.42 52.41 96.42 217.16"/></clipPath><clipPath id="clip-path-2" transform="translate(-25.38 -22.34)"><polyline class="cls-1" points="-396.9 585.09 789.06 585.09 789.06 -252.28 -396.9 -252.28 -396.9 585.09"/></clipPath></defs><title>footprint</title><g class="cls-2"><path class="cls-3" d="M250.44,71.31a10,10,0,1,0,10-10,9.86,9.86,0,0,0-10,10" transform="translate(-25.38 -22.34)"/><path class="cls-3" d="M106.56,71.31a10,10,0,1,0,10-10,9.86,9.86,0,0,0-10,10" transform="translate(-25.38 -22.34)"/><path class="cls-3" d="M178.56,71.31a10,10,0,1,0,10-10,9.86,9.86,0,0,0-10,10" transform="translate(-25.38 -22.34)"/><path class="cls-3" d="M249.36,125.31a11,11,0,1,0,11-11,10.94,10.94,0,0,0-11,11" transform="translate(-25.38 -22.34)"/><path class="cls-3" d="M105.48,125.31a11,11,0,1,0,11-11,10.94,10.94,0,0,0-11,11" transform="translate(-25.38 -22.34)"/><path class="cls-3" d="M170,125.31a18.48,18.48,0,1,0,18.48-18.48A18.41,18.41,0,0,0,170,125.31" transform="translate(-25.38 -22.34)"/><path class="cls-3" d="M177.84,197.43a10.68,10.68,0,1,0,10.68-10.68,10.63,10.63,0,0,0-10.68,10.68" transform="translate(-25.38 -22.34)"/></g><g class="cls-4"><line class="cls-5" x1="158.64" y1="103.15" x2="167.64" y2="103.15"/><line class="cls-5" x1="163.08" y1="107.59" x2="163.08" y2="98.59"/><line class="cls-5" x1="134.76" y1="103.15" x2="149.64" y2="103.15"/><line class="cls-5" x1="176.64" y1="103.15" x2="191.4" y2="103.15"/><line class="cls-5" x1="163.08" y1="131.47" x2="163.08" y2="116.59"/><line class="cls-5" x1="163.08" y1="89.59" x2="163.08" y2="74.71"/><line class="cls-5" x1="234.12" y1="49.15" x2="236.04" y2="49.15"/><line class="cls-5" x1="235.08" y1="50.11" x2="235.08" y2="48.07"/><line class="cls-5" x1="215.28" y1="49.15" x2="233.04" y2="49.15"/><line class="cls-5" x1="237.12" y1="49.15" x2="254.88" y2="49.15"/><line class="cls-5" x1="235.08" y1="68.95" x2="235.08" y2="51.07"/><line class="cls-5" x1="235.08" y1="47.11" x2="235.08" y2="29.23"/><line class="cls-5" x1="162.12" y1="49.15" x2="164.04" y2="49.15"/><line class="cls-5" x1="163.08" y1="50.11" x2="163.08" y2="48.07"/><line class="cls-5" x1="143.28" y1="49.15" x2="161.04" y2="49.15"/><line class="cls-5" x1="165.12" y1="49.15" x2="182.88" y2="49.15"/><line class="cls-5" x1="163.08" y1="68.95" x2="163.08" y2="51.07"/><line class="cls-5" x1="163.08" y1="47.11" x2="163.08" y2="29.23"/><line class="cls-5" x1="90.12" y1="49.15" x2="92.04" y2="49.15"/><line class="cls-5" x1="91.08" y1="50.11" x2="91.08" y2="48.07"/><line class="cls-5" x1="71.28" y1="49.15" x2="89.16" y2="49.15"/><line class="cls-5" x1="93.12" y1="49.15" x2="110.88" y2="49.15"/><line class="cls-5" x1="91.08" y1="68.95" x2="91.08" y2="51.07"/><line class="cls-5" x1="91.08" y1="47.11" x2="91.08" y2="29.23"/><line class="cls-5" x1="162" y1="175.15" x2="164.16" y2="175.15"/><line class="cls-5" x1="163.08" y1="176.23" x2="163.08" y2="174.07"/><line class="cls-5" x1="142.56" y1="175.15" x2="160.92" y2="175.15"/><line class="cls-5" x1="165.24" y1="175.15" x2="183.6" y2="175.15"/><line class="cls-5" x1="163.08" y1="195.67" x2="163.08" y2="177.19"/><line class="cls-5" x1="163.08" y1="172.99" x2="163.08" y2="154.51"/><line class="cls-5" x1="163.08" y1="54.79" x2="163.08" y2="76.87"/><line class="cls-5" x1="91.08" y1="54.79" x2="91.08" y2="76.87"/><line class="cls-5" x1="153.12" y1="71.11" x2="101.04" y2="71.11"/><polygon points="153.12 69.55 153.12 72.79 163.08 71.11 153.12 69.55"/><polygon class="cls-6" points="153.12 69.55 153.12 72.79 163.08 71.11 153.12 69.55"/><polygon points="101.04 69.55 101.04 72.79 91.08 71.11 101.04 69.55"/><polygon class="cls-6" points="101.04 69.55 101.04 72.79 91.08 71.11 101.04 69.55"/></g><g class="cls-4"><text class="cls-7" transform="translate(111.96 66.79)">5.08</text></g><g class="cls-4"><line class="cls-5" x1="240.72" y1="49.15" x2="287.52" y2="49.15"/><line class="cls-5" x1="240.72" y1="103.15" x2="287.52" y2="103.15"/><line class="cls-5" x1="281.88" y1="58.99" x2="281.88" y2="93.19"/><polygon points="280.2 58.99 283.44 58.99 281.88 49.15 280.2 58.99"/><polygon class="cls-6" points="280.2 58.99 283.44 58.99 281.88 49.15 280.2 58.99"/><polygon points="280.2 93.19 283.44 93.19 281.88 103.15 280.2 93.19"/><polygon class="cls-6" points="280.2 93.19 283.44 93.19 281.88 103.15 280.2 93.19"/><text class="cls-7" transform="translate(277.44 88.63) rotate(-90)">3.81</text><line class="cls-5" x1="240.72" y1="103.15" x2="287.52" y2="103.15"/><line class="cls-5" x1="168.72" y1="175.15" x2="287.52" y2="175.15"/><line class="cls-5" x1="281.88" y1="112.99" x2="281.88" y2="165.19"/><polygon points="280.2 112.99 283.44 112.99 281.88 103.15 280.2 112.99"/><polygon class="cls-6" points="280.2 112.99 283.44 112.99 281.88 103.15 280.2 112.99"/><polygon points="280.2 165.19 283.44 165.19 281.88 175.15 280.2 165.19"/><polygon class="cls-6" points="280.2 165.19 283.44 165.19 281.88 175.15 280.2 165.19"/><text class="cls-7" transform="translate(277.44 152.59) rotate(-90)">5.08</text><line class="cls-5" x1="9.36" y1="48.19" x2="71.28" y2="48.91"/><line class="cls-5" x1="110.88" y1="49.39" x2="120.84" y2="49.39"/></g><g class="cls-4"><text class="cls-8" transform="matrix(1, 0.01, -0.01, 1, 13.06, 43.61)">3xØ1.4</text></g><g class="cls-4"><line class="cls-5" x1="101.04" y1="49.27" x2="81.12" y2="49.03"/><polygon points="111 47.71 110.88 50.95 101.04 49.27 111 47.71"/><polygon class="cls-6" points="111 47.71 110.88 50.95 101.04 49.27 111 47.71"/><polygon points="71.28 47.23 71.28 50.59 81.12 49.03 71.28 47.23"/><polygon class="cls-6" points="71.28 47.23 71.28 50.59 81.12 49.03 71.28 47.23"/><line class="cls-5" x1="95.4" y1="220.75" x2="146.04" y2="186.55"/><line class="cls-5" x1="180.12" y1="163.63" x2="188.4" y2="158.11"/><text class="cls-9" transform="matrix(0.83, -0.56, 0.56, 0.83, 95.07, 215.38)">1xØ1.5</text><line class="cls-5" x1="171.84" y1="169.15" x2="154.32" y2="181.03"/><polygon points="179.16 162.31 181.08 164.95 171.84 169.15 179.16 162.31"/><polygon class="cls-6" points="179.16 162.31 181.08 164.95 171.84 169.15 179.16 162.31"/><polygon points="145.08 185.23 147 187.99 154.32 181.03 145.08 185.23"/><polygon class="cls-6" points="145.08 185.23 147 187.99 154.32 181.03 145.08 185.23"/><line class="cls-5" x1="87.48" y1="150.67" x2="139.08" y2="118.15"/><line class="cls-5" x1="187.08" y1="88.03" x2="195.48" y2="82.75"/><text class="cls-10" transform="translate(87.33 145.24) rotate(-32.15)">1xØ2.6</text><line class="cls-5" x1="178.68" y1="93.31" x2="147.48" y2="112.87"/><polygon points="186.24 86.59 187.92 89.47 178.68 93.31 186.24 86.59"/><polygon class="cls-6" points="186.24 86.59 187.92 89.47 178.68 93.31 186.24 86.59"/><polygon points="138.24 116.83 139.92 119.59 147.48 112.87 138.24 116.83"/><polygon class="cls-6" points="138.24 116.83 139.92 119.59 147.48 112.87 138.24 116.83"/><line class="cls-5" x1="0.36" y1="103.15" x2="70.2" y2="103.15"/><line class="cls-5" x1="111.96" y1="103.15" x2="121.92" y2="103.15"/><text class="cls-7" transform="translate(4.2 98.47)">2xØ1.55</text><line class="cls-5" x1="102.12" y1="103.15" x2="80.16" y2="103.15"/><polygon points="111.96 101.47 111.96 104.71 102.12 103.15 111.96 101.47"/><polygon class="cls-6" points="111.96 101.47 111.96 104.71 102.12 103.15 111.96 101.47"/><polygon points="70.2 101.47 70.2 104.71 80.16 103.15 70.2 101.47"/><polygon class="cls-6" points="70.2 101.47 70.2 104.71 80.16 103.15 70.2 101.47"/></g><g class="cls-4"><text class="cls-11" transform="translate(199.56 16.99)">2</text></g><g class="cls-4"><polygon points="177.36 35.35 169.32 41.35 174.96 33.07 177.36 35.35"/><polygon class="cls-12" points="177.36 35.35 169.32 41.35 174.96 33.07 177.36 35.35"/><polyline class="cls-5" points="176.16 34.27 190.08 19.87 200.04 19.87 209.52 19.87"/><text class="cls-11" transform="translate(273.6 19.39)">3</text><polygon points="251.04 37.15 242.76 42.79 248.76 34.75 251.04 37.15"/><polygon class="cls-6" points="251.04 37.15 242.76 42.79 248.76 34.75 251.04 37.15"/><polyline class="cls-5" points="249.96 35.95 264.36 22.27 274.32 22.27 283.68 22.27"/><text class="cls-11" transform="translate(127.92 18.19)">1</text><polygon points="106.2 36.19 97.8 41.83 103.8 33.79 106.2 36.19"/><polygon class="cls-6" points="106.2 36.19 97.8 41.83 103.8 33.79 106.2 36.19"/><polyline class="cls-5" points="105 34.99 119.52 20.95 129.48 20.95 135.72 20.95"/><text class="cls-11" transform="translate(194.64 137.47)">4</text><polygon points="174.48 158.23 167.52 165.43 171.84 156.31 174.48 158.23"/><polygon class="cls-6" points="174.48 158.23 167.52 165.43 171.84 156.31 174.48 158.23"/><polyline class="cls-5" points="173.16 157.27 185.04 140.35 195 140.35 205.2 140.35"/></g><circle class="cls-13" cx="436.9" cy="99.68" r="7.68"/><circle class="cls-13" cx="493.11" cy="99.68" r="7.68"/><rect class="cls-14" x="447.22" y="63.99" width="35.57" height="9.5"/><rect class="cls-15" x="438.22" y="73.49" width="53.57" height="6.75"/><line class="cls-13" x1="500.79" y1="99.99" x2="542.22" y2="99.99"/><line class="cls-13" x1="387.79" y1="99.99" x2="429.22" y2="99.99"/><line class="cls-13" x1="387.79" y1="131.99" x2="542.22" y2="131.99"/><text class="cls-16" transform="translate(388.22 96.49)">2</text><text class="cls-16" transform="translate(532.22 96.49)">4</text><text class="cls-16" transform="translate(387.79 127.99)">1</text><text class="cls-16" transform="translate(532.22 127.99)">3</text></svg>