<?xml version="1.0" encoding="utf-8"?>
<!-- Generator: Adobe Illustrator 19.2.1, SVG Export Plug-In . SVG Version: 6.00 Build 0)  -->
<svg version="1.1" id="Layer_1" xmlns="http://www.w3.org/2000/svg" xmlns:xlink="http://www.w3.org/1999/xlink" x="0px" y="0px"
	 viewBox="0 0 767 207" style="enable-background:new 0 0 767 207;" xml:space="preserve">
<style type="text/css">
	.st0{fill:none;}
	.st1{fill:none;stroke:#000000;stroke-width:1.44;stroke-linecap:round;stroke-linejoin:round;stroke-miterlimit:10;}
	.st2{fill:none;stroke:#000000;stroke-width:0.72;stroke-linecap:round;stroke-linejoin:round;stroke-miterlimit:10;}
	.st3{fill:none;stroke:#000000;stroke-width:0.96;stroke-linecap:round;stroke-linejoin:round;stroke-miterlimit:10;}
	.st4{font-family:'ArialMT';}
	.st5{font-size:13.8594px;}
	.st6{font-size:13.8588px;}
</style>
<g>
	<polyline class="st0" points="511.9,174.2 710.6,174.2 710.6,42.7 511.9,42.7 511.9,174.2 	"/>
	<polyline class="st1" points="523.2,119.8 523.4,119.8 524.2,119.8 525.2,119.8 526.8,119.8 528.7,119.8 531.2,119.8 534,119.8 
		537.2,119.8 540.8,119.8 544.7,119.8 549,119.8 553.6,119.8 558.5,119.8 563.6,119.8 569,119.8 574.7,119.8 580.6,119.8 
		586.4,119.8 592.6,119.8 598.8,119.8 605,119.8 611.3,119.8 617.5,119.8 623.8,119.8 630,119.8 636.1,119.8 642,119.8 647.9,119.8 
		653.5,119.8 658.9,119.8 664.1,119.8 669,119.8 673.6,119.8 677.9,119.8 681.7,119.8 685.3,119.8 688.6,119.8 691.3,119.8 
		693.8,119.8 695.8,119.8 697.3,119.8 698.4,119.8 699.1,119.8 699.4,119.8 	"/>
	<polyline class="st0" points="511.9,174.2 710.6,174.2 710.6,42.7 511.9,42.7 511.9,174.2 	"/>
	<polyline class="st1" points="681.4,160.6 676.7,165.2 666.2,165.2 661.4,160.6 681.4,160.6 682.7,122 	"/>
	<polyline class="st0" points="511.9,174.2 710.6,174.2 710.6,42.7 511.9,42.7 511.9,174.2 	"/>
	<line class="st1" x1="556.3" y1="165.2" x2="561.1" y2="160.6"/>
	<polyline class="st0" points="511.9,174.2 710.6,174.2 710.6,42.7 511.9,42.7 511.9,174.2 	"/>
	<polyline class="st1" points="556.3,165.2 545.9,165.2 541.2,160.6 561.1,160.6 562.4,122 	"/>
	<polyline class="st0" points="511.9,174.2 710.6,174.2 710.6,42.7 511.9,42.7 511.9,174.2 	"/>
	<line class="st1" x1="539.9" y1="122" x2="541.2" y2="160.6"/>
	<polyline class="st0" points="511.9,174.2 710.6,174.2 710.6,42.7 511.9,42.7 511.9,174.2 	"/>
	<polyline class="st1" points="680.5,51.7 680.3,51.7 679.6,51.7 678.4,51.7 676.8,51.7 674.6,51.7 672.1,51.7 669.2,51.7 
		665.9,51.7 662.2,51.7 658.2,51.7 653.8,51.7 649.2,51.7 644.3,51.7 639.1,51.7 633.7,51.7 628.3,51.7 622.7,51.7 617,51.7 
		611.3,51.7 605.5,51.7 599.9,51.7 594.2,51.7 588.8,51.7 583.4,51.7 578.3,51.7 573.4,51.7 568.8,51.7 564.4,51.7 560.4,51.7 
		556.7,51.7 553.3,51.7 550.4,51.7 547.9,51.7 545.8,51.7 544.2,51.7 543,51.7 542.3,51.7 542,51.7 	"/>
	<polyline class="st0" points="511.9,174.2 710.6,174.2 710.6,42.7 511.9,42.7 511.9,174.2 	"/>
	<polyline class="st1" points="660.1,122 660.1,121.5 660,121.2 659.8,120.8 659.4,120.4 659.2,120.2 658.7,120 658.3,119.8 
		657.8,119.8 	"/>
	<polyline class="st0" points="511.9,174.2 710.6,174.2 710.6,42.7 511.9,42.7 511.9,174.2 	"/>
	<polyline class="st1" points="682.7,122 682.7,121.5 682.9,121.2 683,120.8 683.4,120.4 683.8,120.2 684.1,120 684.5,119.8 
		685,119.8 	"/>
	<polyline class="st0" points="511.9,174.2 710.6,174.2 710.6,42.7 511.9,42.7 511.9,174.2 	"/>
	<line class="st1" x1="660.1" y1="122" x2="661.4" y2="160.6"/>
	<polyline class="st0" points="511.9,174.2 710.6,174.2 710.6,42.7 511.9,42.7 511.9,174.2 	"/>
	<polyline class="st1" points="564.7,119.8 564.2,119.8 563.9,120 563.4,120.2 563.2,120.4 562.8,120.8 562.6,121.2 562.4,121.5 
		562.4,122 	"/>
	<polyline class="st0" points="511.9,174.2 710.6,174.2 710.6,42.7 511.9,42.7 511.9,174.2 	"/>
	<polyline class="st1" points="539.9,122 539.9,121.5 539.6,121.2 539.5,120.8 539.2,120.4 538.8,120.2 538.4,120 538.1,119.8 
		537.6,119.8 	"/>
	<polyline class="st0" points="511.9,174.2 710.6,174.2 710.6,42.7 511.9,42.7 511.9,174.2 	"/>
	<path class="st1" d="M699.5,119.8c0.7,0,1.4-0.3,1.8-0.8c0.4-0.4,0.5-1.2,0.4-1.9"/>
	<polyline class="st0" points="511.9,174.2 710.6,174.2 710.6,42.7 511.9,42.7 511.9,174.2 	"/>
	<path class="st1" d="M521,117.1c-0.1,0.7,0.1,1.3,0.5,1.8c0.5,0.6,1.1,0.8,1.8,0.8"/>
	<polyline class="st0" points="511.9,174.2 710.6,174.2 710.6,42.7 511.9,42.7 511.9,174.2 	"/>
	<line class="st1" x1="691.7" y1="61" x2="701.5" y2="117.1"/>
	<polyline class="st0" points="511.9,174.2 710.6,174.2 710.6,42.7 511.9,42.7 511.9,174.2 	"/>
	<line class="st1" x1="530.9" y1="61" x2="521" y2="117.1"/>
	<polyline class="st0" points="511.9,174.2 710.6,174.2 710.6,42.7 511.9,42.7 511.9,174.2 	"/>
	<path class="st1" d="M542,51.7c-5.6,0-10.2,3.9-11.2,9.4"/>
	<polyline class="st0" points="511.9,174.2 710.6,174.2 710.6,42.7 511.9,42.7 511.9,174.2 	"/>
	<path class="st1" d="M691.9,61c-1-5.5-5.6-9.4-11.3-9.4"/>
</g>
<g>
	<polyline class="st0" points="271.2,174.2 469.9,174.2 469.9,42.7 271.2,42.7 271.2,174.2 	"/>
	<polyline class="st1" points="282.5,119.8 282.7,119.8 283.4,119.8 284.5,119.8 286.1,119.8 288,119.8 290.5,119.8 293.3,119.8 
		296.5,119.8 300.1,119.8 304,119.8 308.3,119.8 312.8,119.8 317.8,119.8 322.9,119.8 328.3,119.8 334,119.8 339.8,119.8 
		345.7,119.8 351.8,119.8 358.1,119.8 364.3,119.8 370.6,119.8 376.8,119.8 383,119.8 389.3,119.8 395.4,119.8 401.3,119.8 
		407.2,119.8 412.8,119.8 418.2,119.8 423.4,119.8 428.3,119.8 432.8,119.8 437.2,119.8 441,119.8 444.6,119.8 447.8,119.8 
		450.6,119.8 453.1,119.8 455,119.8 456.6,119.8 457.7,119.8 458.4,119.8 458.6,119.8 	"/>
	<polyline class="st0" points="271.2,174.2 469.9,174.2 469.9,42.7 271.2,42.7 271.2,174.2 	"/>
	<line class="st1" x1="398.5" y1="165.2" x2="403.2" y2="160.6"/>
	<polyline class="st0" points="271.2,174.2 469.9,174.2 469.9,42.7 271.2,42.7 271.2,174.2 	"/>
	<polyline class="st1" points="398.5,165.2 342.6,165.2 337.9,160.6 403.2,160.6 404.5,122 	"/>
	<polyline class="st0" points="271.2,174.2 469.9,174.2 469.9,42.7 271.2,42.7 271.2,174.2 	"/>
	<line class="st1" x1="336.6" y1="122" x2="337.9" y2="160.6"/>
	<polyline class="st0" points="271.2,174.2 469.9,174.2 469.9,42.7 271.2,42.7 271.2,174.2 	"/>
	<polyline class="st1" points="439.8,51.7 439.6,51.7 438.8,51.7 437.6,51.7 436.1,51.7 433.9,51.7 431.4,51.7 428.5,51.7 
		425.2,51.7 421.4,51.7 417.5,51.7 413,51.7 408.5,51.7 403.6,51.7 398.4,51.7 393,51.7 387.6,51.7 382,51.7 376.3,51.7 370.6,51.7 
		364.8,51.7 359.2,51.7 353.5,51.7 348.1,51.7 342.7,51.7 337.6,51.7 332.6,51.7 328.1,51.7 323.6,51.7 319.7,51.7 316,51.7 
		312.6,51.7 309.7,51.7 307.2,51.7 305,51.7 303.5,51.7 302.3,51.7 301.6,51.7 301.3,51.7 	"/>
	<polyline class="st0" points="271.2,174.2 469.9,174.2 469.9,42.7 271.2,42.7 271.2,174.2 	"/>
	<polyline class="st1" points="404.5,122 404.5,121.5 404.8,121.2 404.9,120.8 405.2,120.4 405.6,120.2 406,120 406.3,119.8 
		406.8,119.8 	"/>
	<polyline class="st0" points="271.2,174.2 469.9,174.2 469.9,42.7 271.2,42.7 271.2,174.2 	"/>
	<polyline class="st1" points="336.6,122 336.6,121.5 336.4,121.2 336.2,120.8 335.9,120.4 335.5,120.2 335.2,120 334.8,119.8 
		334.3,119.8 	"/>
	<polyline class="st0" points="271.2,174.2 469.9,174.2 469.9,42.7 271.2,42.7 271.2,174.2 	"/>
	<path class="st1" d="M458.7,119.8c0.7,0,1.4-0.3,1.8-0.8c0.4-0.4,0.5-1.2,0.4-1.9"/>
	<polyline class="st0" points="271.2,174.2 469.9,174.2 469.9,42.7 271.2,42.7 271.2,174.2 	"/>
	<path class="st1" d="M280.3,117.1c-0.1,0.7,0.1,1.3,0.5,1.8c0.5,0.6,1.1,0.8,1.8,0.8"/>
	<polyline class="st0" points="271.2,174.2 469.9,174.2 469.9,42.7 271.2,42.7 271.2,174.2 	"/>
	<line class="st1" x1="451" y1="61" x2="460.8" y2="117.1"/>
	<polyline class="st0" points="271.2,174.2 469.9,174.2 469.9,42.7 271.2,42.7 271.2,174.2 	"/>
	<line class="st1" x1="290.2" y1="61" x2="280.3" y2="117.1"/>
	<polyline class="st0" points="271.2,174.2 469.9,174.2 469.9,42.7 271.2,42.7 271.2,174.2 	"/>
	<path class="st1" d="M301.3,51.7c-5.6,0-10.2,3.9-11.2,9.4"/>
	<polyline class="st0" points="271.2,174.2 469.9,174.2 469.9,42.7 271.2,42.7 271.2,174.2 	"/>
	<path class="st1" d="M451.1,61c-1-5.5-5.6-9.4-11.3-9.4"/>
</g>
<g>
	<polyline class="st0" points="16.6,196.3 215.3,196.3 215.3,5.5 16.6,5.5 16.6,196.3 	"/>
	<polyline class="st2" points="53.6,76.3 49.8,78.6 46.3,81 46.2,81.1 	"/>
	<polyline class="st0" points="16.6,196.3 215.3,196.3 215.3,5.5 16.6,5.5 16.6,196.3 	"/>
	<polyline class="st2" points="42.6,84 40.1,86.2 37.4,89 36.4,90.3 	"/>
	<polyline class="st0" points="16.6,196.3 215.3,196.3 215.3,5.5 16.6,5.5 16.6,196.3 	"/>
	<polyline class="st2" points="33.7,93.9 33,94.9 31.3,97.9 30,101 29.6,102 	"/>
	<polyline class="st0" points="16.6,196.3 215.3,196.3 215.3,5.5 16.6,5.5 16.6,196.3 	"/>
	<polyline class="st2" points="28.4,106.2 28.2,107.2 27.8,110.5 27.8,113.7 28.1,115.2 	"/>
	<polyline class="st0" points="16.6,196.3 215.3,196.3 215.3,5.5 16.6,5.5 16.6,196.3 	"/>
	<polyline class="st2" points="28.8,119.5 28.9,120 30,123.1 31.3,126.2 32.3,127.8 	"/>
	<polyline class="st0" points="16.6,196.3 215.3,196.3 215.3,5.5 16.6,5.5 16.6,196.3 	"/>
	<polyline class="st2" points="34.7,131.6 35,132.2 37.4,135.1 40.1,137.8 40.6,138.3 	"/>
	<polyline class="st0" points="16.6,196.3 215.3,196.3 215.3,5.5 16.6,5.5 16.6,196.3 	"/>
	<polyline class="st2" points="43.9,141.2 46.3,143.1 49.8,145.6 51.2,146.5 	"/>
	<polyline class="st0" points="16.6,196.3 215.3,196.3 215.3,5.5 16.6,5.5 16.6,196.3 	"/>
	<polyline class="st2" points="55.1,148.6 57.7,150.1 61.9,152.1 63.1,152.6 	"/>
	<polyline class="st0" points="16.6,196.3 215.3,196.3 215.3,5.5 16.6,5.5 16.6,196.3 	"/>
	<polyline class="st2" points="67.3,154.3 71,155.7 75.8,157.2 	"/>
	<polyline class="st0" points="16.6,196.3 215.3,196.3 215.3,5.5 16.6,5.5 16.6,196.3 	"/>
	<polyline class="st2" points="80.2,158.4 81,158.6 86,159.8 88.9,160.3 	"/>
	<polyline class="st0" points="16.6,196.3 215.3,196.3 215.3,5.5 16.6,5.5 16.6,196.3 	"/>
	<polyline class="st2" points="93.2,161 96.7,161.6 102.1,162.2 102.2,162.2 	"/>
	<polyline class="st0" points="16.6,196.3 215.3,196.3 215.3,5.5 16.6,5.5 16.6,196.3 	"/>
	<polyline class="st2" points="106.7,162.4 107.6,162.6 113.2,162.7 115.7,162.7 	"/>
	<polyline class="st0" points="16.6,196.3 215.3,196.3 215.3,5.5 16.6,5.5 16.6,196.3 	"/>
	<polyline class="st2" points="120.1,162.7 124.2,162.6 129,162.2 	"/>
	<polyline class="st0" points="16.6,196.3 215.3,196.3 215.3,5.5 16.6,5.5 16.6,196.3 	"/>
	<polyline class="st2" points="133.6,161.7 135.1,161.6 140.5,160.8 142.4,160.4 	"/>
	<polyline class="st0" points="16.6,196.3 215.3,196.3 215.3,5.5 16.6,5.5 16.6,196.3 	"/>
	<polyline class="st2" points="146.8,159.6 150.8,158.6 155.5,157.4 	"/>
	<polyline class="st0" points="16.6,196.3 215.3,196.3 215.3,5.5 16.6,5.5 16.6,196.3 	"/>
	<polyline class="st2" points="159.7,156 160.8,155.7 165.5,154 168.1,152.8 	"/>
	<polyline class="st0" points="16.6,196.3 215.3,196.3 215.3,5.5 16.6,5.5 16.6,196.3 	"/>
	<polyline class="st2" points="172.2,151 174.1,150.1 178.2,147.9 180.1,146.7 	"/>
	<polyline class="st0" points="16.6,196.3 215.3,196.3 215.3,5.5 16.6,5.5 16.6,196.3 	"/>
	<polyline class="st2" points="183.8,144.3 185.5,143.1 188.8,140.6 190.8,138.7 	"/>
	<polyline class="st0" points="16.6,196.3 215.3,196.3 215.3,5.5 16.6,5.5 16.6,196.3 	"/>
	<polyline class="st2" points="194,135.6 194.4,135.1 196.8,132.2 198.8,129.2 199.3,128.4 	"/>
	<polyline class="st0" points="16.6,196.3 215.3,196.3 215.3,5.5 16.6,5.5 16.6,196.3 	"/>
	<polyline class="st2" points="201.4,124.3 201.8,123.1 202.9,120 203.6,116.8 203.8,115.8 	"/>
	<polyline class="st0" points="16.6,196.3 215.3,196.3 215.3,5.5 16.6,5.5 16.6,196.3 	"/>
	<polyline class="st2" points="204,111.2 204,110.5 203.6,107.2 202.9,104.1 202.3,102.4 	"/>
	<polyline class="st0" points="16.6,196.3 215.3,196.3 215.3,5.5 16.6,5.5 16.6,196.3 	"/>
	<polyline class="st2" points="200.6,98.4 200.5,97.9 198.8,94.9 196.8,91.9 195.8,90.8 	"/>
	<polyline class="st0" points="16.6,196.3 215.3,196.3 215.3,5.5 16.6,5.5 16.6,196.3 	"/>
	<polyline class="st2" points="192.8,87.4 191.8,86.2 188.8,83.6 186.1,81.6 	"/>
	<polyline class="st0" points="16.6,196.3 215.3,196.3 215.3,5.5 16.6,5.5 16.6,196.3 	"/>
	<polyline class="st2" points="182.5,78.9 182,78.6 178.2,76.3 174.7,74.4 	"/>
	<polyline class="st0" points="16.6,196.3 215.3,196.3 215.3,5.5 16.6,5.5 16.6,196.3 	"/>
	<polyline class="st2" points="170.8,72.4 169.9,72 165.5,70.2 162.5,69.1 	"/>
	<polyline class="st0" points="16.6,196.3 215.3,196.3 215.3,5.5 16.6,5.5 16.6,196.3 	"/>
	<polyline class="st2" points="158.2,67.6 155.9,66.9 150.8,65.6 149.5,65.2 	"/>
	<polyline class="st0" points="16.6,196.3 215.3,196.3 215.3,5.5 16.6,5.5 16.6,196.3 	"/>
	<polyline class="st2" points="145.2,64.3 140.5,63.4 136.3,62.7 	"/>
	<polyline class="st0" points="16.6,196.3 215.3,196.3 215.3,5.5 16.6,5.5 16.6,196.3 	"/>
	<polyline class="st2" points="131.9,62.2 129.7,62 124.2,61.6 122.9,61.5 	"/>
	<polyline class="st0" points="16.6,196.3 215.3,196.3 215.3,5.5 16.6,5.5 16.6,196.3 	"/>
	<polyline class="st2" points="118.4,61.4 113.2,61.4 109.4,61.5 	"/>
	<polyline class="st0" points="16.6,196.3 215.3,196.3 215.3,5.5 16.6,5.5 16.6,196.3 	"/>
	<polyline class="st2" points="105,61.8 102.1,62 96.7,62.6 96.1,62.7 	"/>
	<polyline class="st0" points="16.6,196.3 215.3,196.3 215.3,5.5 16.6,5.5 16.6,196.3 	"/>
	<polyline class="st2" points="91.7,63.3 91.3,63.4 86,64.4 82.9,65.1 	"/>
	<polyline class="st0" points="16.6,196.3 215.3,196.3 215.3,5.5 16.6,5.5 16.6,196.3 	"/>
	<polyline class="st2" points="78.5,66.2 76,66.9 71,68.5 70,68.8 	"/>
	<polyline class="st0" points="16.6,196.3 215.3,196.3 215.3,5.5 16.6,5.5 16.6,196.3 	"/>
	<polyline class="st2" points="65.8,70.4 61.9,72 57.7,74 57.6,74.1 	"/>
	<polyline class="st0" points="16.6,196.3 215.3,196.3 215.3,5.5 16.6,5.5 16.6,196.3 	"/>
	<line class="st2" x1="53.6" y1="76.3" x2="53.6" y2="76.3"/>
	<polyline class="st0" points="16.6,196.3 215.3,196.3 215.3,5.5 16.6,5.5 16.6,196.3 	"/>
	<path class="st3" d="M26.3,103.2c-4.3,20.2,11.8,39.7,41.3,50.5s67.3,10.8,96.8,0s45.6-30.4,41.3-50.5"/>
	<polyline class="st0" points="16.6,196.3 215.3,196.3 215.3,5.5 16.6,5.5 16.6,196.3 	"/>
	<polyline class="st2" points="26.3,103.4 27.2,100.2 28.4,97 30,93.9 30.1,93.7 	"/>
	<polyline class="st0" points="16.6,196.3 215.3,196.3 215.3,5.5 16.6,5.5 16.6,196.3 	"/>
	<polyline class="st2" points="32.5,90 34.2,87.8 36.7,84.9 38.5,83.2 	"/>
	<polyline class="st0" points="16.6,196.3 215.3,196.3 215.3,5.5 16.6,5.5 16.6,196.3 	"/>
	<polyline class="st2" points="41.9,80.2 42.8,79.4 46.3,76.8 49.1,75 	"/>
	<polyline class="st0" points="16.6,196.3 215.3,196.3 215.3,5.5 16.6,5.5 16.6,196.3 	"/>
	<polyline class="st2" points="53,72.7 54,72 58.3,69.8 61.1,68.6 	"/>
	<polyline class="st0" points="16.6,196.3 215.3,196.3 215.3,5.5 16.6,5.5 16.6,196.3 	"/>
	<polyline class="st2" points="65.2,66.9 67.4,66 72.4,64.4 73.7,63.9 	"/>
	<polyline class="st0" points="16.6,196.3 215.3,196.3 215.3,5.5 16.6,5.5 16.6,196.3 	"/>
	<polyline class="st2" points="78,62.7 82.7,61.5 86.9,60.7 	"/>
	<polyline class="st0" points="16.6,196.3 215.3,196.3 215.3,5.5 16.6,5.5 16.6,196.3 	"/>
	<polyline class="st2" points="91.2,60 93.5,59.6 99,58.9 100.2,58.8 	"/>
	<polyline class="st0" points="16.6,196.3 215.3,196.3 215.3,5.5 16.6,5.5 16.6,196.3 	"/>
	<polyline class="st2" points="104.6,58.3 110.3,58 113.6,57.9 	"/>
	<polyline class="st0" points="16.6,196.3 215.3,196.3 215.3,5.5 16.6,5.5 16.6,196.3 	"/>
	<polyline class="st2" points="118.2,57.9 121.6,58 127.2,58.3 	"/>
	<polyline class="st0" points="16.6,196.3 215.3,196.3 215.3,5.5 16.6,5.5 16.6,196.3 	"/>
	<polyline class="st2" points="131.6,58.8 132.8,58.9 138.4,59.6 140.5,60 	"/>
	<polyline class="st0" points="16.6,196.3 215.3,196.3 215.3,5.5 16.6,5.5 16.6,196.3 	"/>
	<polyline class="st2" points="145,60.7 149.2,61.5 153.8,62.7 	"/>
	<polyline class="st0" points="16.6,196.3 215.3,196.3 215.3,5.5 16.6,5.5 16.6,196.3 	"/>
	<polyline class="st2" points="158.2,63.9 159.5,64.4 164.4,66 166.6,66.9 	"/>
	<polyline class="st0" points="16.6,196.3 215.3,196.3 215.3,5.5 16.6,5.5 16.6,196.3 	"/>
	<polyline class="st2" points="170.8,68.6 173.5,69.8 177.7,72 178.8,72.7 	"/>
	<polyline class="st0" points="16.6,196.3 215.3,196.3 215.3,5.5 16.6,5.5 16.6,196.3 	"/>
	<polyline class="st2" points="182.8,75 185.5,76.8 189,79.4 190,80.2 	"/>
	<polyline class="st0" points="16.6,196.3 215.3,196.3 215.3,5.5 16.6,5.5 16.6,196.3 	"/>
	<polyline class="st2" points="193.3,83.2 195.1,84.9 197.6,87.8 199.3,90 	"/>
	<polyline class="st0" points="16.6,196.3 215.3,196.3 215.3,5.5 16.6,5.5 16.6,196.3 	"/>
	<polyline class="st2" points="201.7,93.7 201.8,93.9 203.4,97 204.6,100.2 205.6,103.4 	"/>
	<polyline class="st0" points="16.6,196.3 215.3,196.3 215.3,5.5 16.6,5.5 16.6,196.3 	"/>
	<path class="st3" d="M36.2,58.1c-4,17.9,10.4,35.4,36.7,45c26.3,9.5,60,9.5,86.3,0c26.3-9.6,40.7-27.1,36.7-45"/>
	<polyline class="st0" points="16.6,196.3 215.3,196.3 215.3,5.5 16.6,5.5 16.6,196.3 	"/>
	<polyline class="st2" points="195.7,58.4 194.9,55.3 194,53.1 	"/>
	<polyline class="st0" points="16.6,196.3 215.3,196.3 215.3,5.5 16.6,5.5 16.6,196.3 	"/>
	<polyline class="st2" points="192,49.2 190.4,46.6 188.3,43.9 186.6,42 	"/>
	<polyline class="st0" points="16.6,196.3 215.3,196.3 215.3,5.5 16.6,5.5 16.6,196.3 	"/>
	<polyline class="st2" points="183.4,38.8 183,38.6 179.9,36.1 176.6,33.7 176.2,33.4 	"/>
	<polyline class="st0" points="16.6,196.3 215.3,196.3 215.3,5.5 16.6,5.5 16.6,196.3 	"/>
	<polyline class="st2" points="172.3,31.2 169.1,29.4 165.1,27.4 164.3,27.1 	"/>
	<polyline class="st0" points="16.6,196.3 215.3,196.3 215.3,5.5 16.6,5.5 16.6,196.3 	"/>
	<polyline class="st2" points="160.1,25.4 156.2,24.1 151.7,22.6 151.6,22.6 	"/>
	<polyline class="st0" points="16.6,196.3 215.3,196.3 215.3,5.5 16.6,5.5 16.6,196.3 	"/>
	<polyline class="st2" points="147.1,21.4 146.9,21.3 141.8,20.2 138.4,19.6 	"/>
	<polyline class="st0" points="16.6,196.3 215.3,196.3 215.3,5.5 16.6,5.5 16.6,196.3 	"/>
	<polyline class="st2" points="133.9,19 131.6,18.7 126.5,18.2 124.9,18.1 	"/>
	<polyline class="st0" points="16.6,196.3 215.3,196.3 215.3,5.5 16.6,5.5 16.6,196.3 	"/>
	<polyline class="st2" points="120.5,17.8 115.9,17.8 111.4,17.8 	"/>
	<polyline class="st0" points="16.6,196.3 215.3,196.3 215.3,5.5 16.6,5.5 16.6,196.3 	"/>
	<polyline class="st2" points="106.9,18.1 105.4,18.2 100.2,18.7 97.9,19 	"/>
	<polyline class="st0" points="16.6,196.3 215.3,196.3 215.3,5.5 16.6,5.5 16.6,196.3 	"/>
	<polyline class="st2" points="93.5,19.6 90,20.2 85,21.3 84.7,21.4 	"/>
	<polyline class="st0" points="16.6,196.3 215.3,196.3 215.3,5.5 16.6,5.5 16.6,196.3 	"/>
	<polyline class="st2" points="80.3,22.6 80.2,22.6 75.6,24.1 71.8,25.4 	"/>
	<polyline class="st0" points="16.6,196.3 215.3,196.3 215.3,5.5 16.6,5.5 16.6,196.3 	"/>
	<polyline class="st2" points="67.6,27.1 66.7,27.4 62.6,29.4 59.5,31 	"/>
	<polyline class="st0" points="16.6,196.3 215.3,196.3 215.3,5.5 16.6,5.5 16.6,196.3 	"/>
	<polyline class="st2" points="55.7,33.4 55.2,33.7 52,36.1 48.8,38.6 48.5,38.8 	"/>
	<polyline class="st0" points="16.6,196.3 215.3,196.3 215.3,5.5 16.6,5.5 16.6,196.3 	"/>
	<polyline class="st2" points="45.2,42 43.6,43.9 41.4,46.6 39.8,49.2 	"/>
	<polyline class="st0" points="16.6,196.3 215.3,196.3 215.3,5.5 16.6,5.5 16.6,196.3 	"/>
	<polyline class="st2" points="37.8,53.1 37,55.3 36.1,58.3 36.1,58.4 	"/>
	<polyline class="st0" points="16.6,196.3 215.3,196.3 215.3,5.5 16.6,5.5 16.6,196.3 	"/>
	<line class="st2" x1="123.2" y1="145.8" x2="129.4" y2="142.3"/>
	<polyline class="st0" points="16.6,196.3 215.3,196.3 215.3,5.5 16.6,5.5 16.6,196.3 	"/>
	<line class="st2" x1="133.3" y1="140" x2="141.1" y2="135.6"/>
	<polyline class="st0" points="16.6,196.3 215.3,196.3 215.3,5.5 16.6,5.5 16.6,196.3 	"/>
	<line class="st2" x1="145" y1="133.3" x2="152.8" y2="128.8"/>
	<polyline class="st0" points="16.6,196.3 215.3,196.3 215.3,5.5 16.6,5.5 16.6,196.3 	"/>
	<line class="st2" x1="156.7" y1="126.6" x2="164.5" y2="122"/>
	<polyline class="st0" points="16.6,196.3 215.3,196.3 215.3,5.5 16.6,5.5 16.6,196.3 	"/>
	<line class="st2" x1="168.4" y1="119.8" x2="174.5" y2="116.2"/>
	<polyline class="st0" points="16.6,196.3 215.3,196.3 215.3,5.5 16.6,5.5 16.6,196.3 	"/>
	<line class="st2" x1="142.4" y1="156.8" x2="134.8" y2="152.4"/>
	<polyline class="st0" points="16.6,196.3 215.3,196.3 215.3,5.5 16.6,5.5 16.6,196.3 	"/>
	<line class="st2" x1="130.9" y1="150.2" x2="123.2" y2="145.8"/>
	<polyline class="st0" points="16.6,196.3 215.3,196.3 215.3,5.5 16.6,5.5 16.6,196.3 	"/>
	<line class="st2" x1="193.7" y1="127.3" x2="187.6" y2="130.9"/>
	<polyline class="st0" points="16.6,196.3 215.3,196.3 215.3,5.5 16.6,5.5 16.6,196.3 	"/>
	<line class="st2" x1="183.6" y1="133" x2="175.8" y2="137.6"/>
	<polyline class="st0" points="16.6,196.3 215.3,196.3 215.3,5.5 16.6,5.5 16.6,196.3 	"/>
	<line class="st2" x1="172" y1="139.8" x2="164.2" y2="144.3"/>
	<polyline class="st0" points="16.6,196.3 215.3,196.3 215.3,5.5 16.6,5.5 16.6,196.3 	"/>
	<line class="st2" x1="160.2" y1="146.6" x2="152.4" y2="151"/>
	<polyline class="st0" points="16.6,196.3 215.3,196.3 215.3,5.5 16.6,5.5 16.6,196.3 	"/>
	<line class="st2" x1="148.6" y1="153.3" x2="142.4" y2="156.8"/>
	<polyline class="st0" points="16.6,196.3 215.3,196.3 215.3,5.5 16.6,5.5 16.6,196.3 	"/>
	<line class="st2" x1="174.5" y1="116.2" x2="182.2" y2="120.7"/>
	<polyline class="st0" points="16.6,196.3 215.3,196.3 215.3,5.5 16.6,5.5 16.6,196.3 	"/>
	<line class="st2" x1="186" y1="123" x2="193.7" y2="127.3"/>
	<polyline class="st0" points="16.6,196.3 215.3,196.3 215.3,5.5 16.6,5.5 16.6,196.3 	"/>
	<line class="st2" x1="108.6" y1="78.3" x2="102.5" y2="81.9"/>
	<polyline class="st0" points="16.6,196.3 215.3,196.3 215.3,5.5 16.6,5.5 16.6,196.3 	"/>
	<line class="st2" x1="98.5" y1="84.1" x2="90.7" y2="88.6"/>
	<polyline class="st0" points="16.6,196.3 215.3,196.3 215.3,5.5 16.6,5.5 16.6,196.3 	"/>
	<line class="st2" x1="86.9" y1="90.8" x2="79.1" y2="95.4"/>
	<polyline class="st0" points="16.6,196.3 215.3,196.3 215.3,5.5 16.6,5.5 16.6,196.3 	"/>
	<line class="st2" x1="75.1" y1="97.6" x2="67.3" y2="102.1"/>
	<polyline class="st0" points="16.6,196.3 215.3,196.3 215.3,5.5 16.6,5.5 16.6,196.3 	"/>
	<line class="st2" x1="63.5" y1="104.4" x2="57.4" y2="107.8"/>
	<polyline class="st0" points="16.6,196.3 215.3,196.3 215.3,5.5 16.6,5.5 16.6,196.3 	"/>
	<line class="st2" x1="89.4" y1="67.3" x2="97.1" y2="71.7"/>
	<polyline class="st0" points="16.6,196.3 215.3,196.3 215.3,5.5 16.6,5.5 16.6,196.3 	"/>
	<line class="st2" x1="100.9" y1="74" x2="108.6" y2="78.3"/>
	<polyline class="st0" points="16.6,196.3 215.3,196.3 215.3,5.5 16.6,5.5 16.6,196.3 	"/>
	<line class="st2" x1="38.2" y1="96.8" x2="44.3" y2="93.3"/>
	<polyline class="st0" points="16.6,196.3 215.3,196.3 215.3,5.5 16.6,5.5 16.6,196.3 	"/>
	<line class="st2" x1="48.2" y1="91" x2="56" y2="86.6"/>
	<polyline class="st0" points="16.6,196.3 215.3,196.3 215.3,5.5 16.6,5.5 16.6,196.3 	"/>
	<line class="st2" x1="59.9" y1="84.3" x2="67.7" y2="79.9"/>
	<polyline class="st0" points="16.6,196.3 215.3,196.3 215.3,5.5 16.6,5.5 16.6,196.3 	"/>
	<line class="st2" x1="71.6" y1="77.6" x2="79.4" y2="73"/>
	<polyline class="st0" points="16.6,196.3 215.3,196.3 215.3,5.5 16.6,5.5 16.6,196.3 	"/>
	<line class="st2" x1="83.3" y1="70.9" x2="89.4" y2="67.3"/>
	<polyline class="st0" points="16.6,196.3 215.3,196.3 215.3,5.5 16.6,5.5 16.6,196.3 	"/>
	<line class="st2" x1="57.4" y1="107.8" x2="49.7" y2="103.5"/>
	<polyline class="st0" points="16.6,196.3 215.3,196.3 215.3,5.5 16.6,5.5 16.6,196.3 	"/>
	<line class="st2" x1="45.8" y1="101.2" x2="38.2" y2="96.8"/>
	<polyline class="st0" points="16.6,196.3 215.3,196.3 215.3,5.5 16.6,5.5 16.6,196.3 	"/>
	<polyline class="st3" points="181.9,164.4 174.5,160.2 174.5,152.6 179.5,155.5 	"/>
	<polyline class="st0" points="16.6,196.3 215.3,196.3 215.3,5.5 16.6,5.5 16.6,196.3 	"/>
	<polyline class="st3" points="183.5,157.8 188.5,160.6 181.9,164.4 	"/>
	<polyline class="st0" points="16.6,196.3 215.3,196.3 215.3,5.5 16.6,5.5 16.6,196.3 	"/>
	<line class="st3" x1="128.4" y1="179.1" x2="137.8" y2="173.7"/>
	<polyline class="st0" points="16.6,196.3 215.3,196.3 215.3,5.5 16.6,5.5 16.6,196.3 	"/>
	<line class="st3" x1="141.7" y1="171.6" x2="149.5" y2="167"/>
	<polyline class="st0" points="16.6,196.3 215.3,196.3 215.3,5.5 16.6,5.5 16.6,196.3 	"/>
	<line class="st3" x1="153.4" y1="164.7" x2="161.2" y2="160.3"/>
	<polyline class="st0" points="16.6,196.3 215.3,196.3 215.3,5.5 16.6,5.5 16.6,196.3 	"/>
	<line class="st3" x1="165.1" y1="158" x2="174.5" y2="152.6"/>
	<polyline class="st0" points="16.6,196.3 215.3,196.3 215.3,5.5 16.6,5.5 16.6,196.3 	"/>
	<line class="st3" x1="174.5" y1="160.2" x2="168.4" y2="163.6"/>
	<polyline class="st0" points="16.6,196.3 215.3,196.3 215.3,5.5 16.6,5.5 16.6,196.3 	"/>
	<line class="st3" x1="164.5" y1="165.9" x2="156.7" y2="170.4"/>
	<polyline class="st0" points="16.6,196.3 215.3,196.3 215.3,5.5 16.6,5.5 16.6,196.3 	"/>
	<line class="st3" x1="152.8" y1="172.6" x2="145" y2="177.1"/>
	<polyline class="st0" points="16.6,196.3 215.3,196.3 215.3,5.5 16.6,5.5 16.6,196.3 	"/>
	<polyline class="st3" points="141.1,179.4 135,182.8 128.4,179.1 	"/>
	<polyline class="st0" points="16.6,196.3 215.3,196.3 215.3,5.5 16.6,5.5 16.6,196.3 	"/>
	<line class="st1" x1="142.4" y1="187.3" x2="128.4" y2="179.1"/>
	<polyline class="st0" points="16.6,196.3 215.3,196.3 215.3,5.5 16.6,5.5 16.6,196.3 	"/>
	<line class="st3" x1="135" y1="182.8" x2="142.4" y2="187.2"/>
	<polyline class="st0" points="16.6,196.3 215.3,196.3 215.3,5.5 16.6,5.5 16.6,196.3 	"/>
	<line class="st1" x1="188.5" y1="160.6" x2="142.4" y2="187.3"/>
	<polyline class="st0" points="16.6,196.3 215.3,196.3 215.3,5.5 16.6,5.5 16.6,196.3 	"/>
	<line class="st3" x1="142.4" y1="187.2" x2="148.4" y2="183.7"/>
	<polyline class="st0" points="16.6,196.3 215.3,196.3 215.3,5.5 16.6,5.5 16.6,196.3 	"/>
	<line class="st3" x1="152.4" y1="181.4" x2="160.2" y2="176.8"/>
	<polyline class="st0" points="16.6,196.3 215.3,196.3 215.3,5.5 16.6,5.5 16.6,196.3 	"/>
	<line class="st3" x1="164" y1="174.7" x2="171.8" y2="170.1"/>
	<polyline class="st0" points="16.6,196.3 215.3,196.3 215.3,5.5 16.6,5.5 16.6,196.3 	"/>
	<line class="st3" x1="175.8" y1="168" x2="181.9" y2="164.4"/>
	<polyline class="st0" points="16.6,196.3 215.3,196.3 215.3,5.5 16.6,5.5 16.6,196.3 	"/>
	<line class="st3" x1="190.4" y1="129.1" x2="189.7" y2="140.8"/>
	<polyline class="st0" points="16.6,196.3 215.3,196.3 215.3,5.5 16.6,5.5 16.6,196.3 	"/>
	<line class="st1" x1="189.7" y1="140.8" x2="188.5" y2="160.6"/>
	<polyline class="st0" points="16.6,196.3 215.3,196.3 215.3,5.5 16.6,5.5 16.6,196.3 	"/>
	<line class="st2" x1="142.4" y1="156.8" x2="146.9" y2="154.2"/>
	<polyline class="st0" points="16.6,196.3 215.3,196.3 215.3,5.5 16.6,5.5 16.6,196.3 	"/>
	<line class="st2" x1="150.8" y1="151.9" x2="158.6" y2="147.4"/>
	<polyline class="st0" points="16.6,196.3 215.3,196.3 215.3,5.5 16.6,5.5 16.6,196.3 	"/>
	<line class="st2" x1="162.5" y1="145.2" x2="170.3" y2="140.7"/>
	<polyline class="st0" points="16.6,196.3 215.3,196.3 215.3,5.5 16.6,5.5 16.6,196.3 	"/>
	<line class="st2" x1="174.2" y1="138.4" x2="182" y2="133.9"/>
	<polyline class="st0" points="16.6,196.3 215.3,196.3 215.3,5.5 16.6,5.5 16.6,196.3 	"/>
	<line class="st2" x1="185.9" y1="131.7" x2="190.4" y2="129.1"/>
	<polyline class="st0" points="16.6,196.3 215.3,196.3 215.3,5.5 16.6,5.5 16.6,196.3 	"/>
	<line class="st3" x1="142.4" y1="156.8" x2="142.4" y2="160.9"/>
	<polyline class="st0" points="16.6,196.3 215.3,196.3 215.3,5.5 16.6,5.5 16.6,196.3 	"/>
	<line class="st1" x1="142.4" y1="160.9" x2="142.4" y2="187.3"/>
	<polyline class="st0" points="16.6,196.3 215.3,196.3 215.3,5.5 16.6,5.5 16.6,196.3 	"/>
	<line class="st3" x1="174.5" y1="120" x2="174.5" y2="127.3"/>
	<polyline class="st0" points="16.6,196.3 215.3,196.3 215.3,5.5 16.6,5.5 16.6,196.3 	"/>
	<line class="st3" x1="174.5" y1="131.7" x2="174.5" y2="140.7"/>
	<polyline class="st0" points="16.6,196.3 215.3,196.3 215.3,5.5 16.6,5.5 16.6,196.3 	"/>
	<line class="st3" x1="174.5" y1="145.3" x2="174.5" y2="152.6"/>
	<polyline class="st0" points="16.6,196.3 215.3,196.3 215.3,5.5 16.6,5.5 16.6,196.3 	"/>
	<line class="st2" x1="190.4" y1="129.1" x2="184.4" y2="125.6"/>
	<polyline class="st0" points="16.6,196.3 215.3,196.3 215.3,5.5 16.6,5.5 16.6,196.3 	"/>
	<line class="st2" x1="180.5" y1="123.4" x2="174.5" y2="120"/>
	<polyline class="st0" points="16.6,196.3 215.3,196.3 215.3,5.5 16.6,5.5 16.6,196.3 	"/>
	<line class="st3" x1="57.4" y1="138.2" x2="63.5" y2="134.7"/>
	<polyline class="st0" points="16.6,196.3 215.3,196.3 215.3,5.5 16.6,5.5 16.6,196.3 	"/>
	<line class="st3" x1="67.3" y1="132.4" x2="75.1" y2="127.9"/>
	<polyline class="st0" points="16.6,196.3 215.3,196.3 215.3,5.5 16.6,5.5 16.6,196.3 	"/>
	<line class="st3" x1="79.1" y1="125.7" x2="86.9" y2="121.2"/>
	<polyline class="st0" points="16.6,196.3 215.3,196.3 215.3,5.5 16.6,5.5 16.6,196.3 	"/>
	<polyline class="st3" points="90.7,119 96.8,115.4 103.4,111.7 94.1,117.2 	"/>
	<polyline class="st0" points="16.6,196.3 215.3,196.3 215.3,5.5 16.6,5.5 16.6,196.3 	"/>
	<line class="st3" x1="90.1" y1="119.4" x2="82.3" y2="123.9"/>
	<polyline class="st0" points="16.6,196.3 215.3,196.3 215.3,5.5 16.6,5.5 16.6,196.3 	"/>
	<line class="st3" x1="78.5" y1="126.1" x2="70.7" y2="130.6"/>
	<polyline class="st0" points="16.6,196.3 215.3,196.3 215.3,5.5 16.6,5.5 16.6,196.3 	"/>
	<line class="st3" x1="66.7" y1="132.9" x2="57.4" y2="138.3"/>
	<polyline class="st0" points="16.6,196.3 215.3,196.3 215.3,5.5 16.6,5.5 16.6,196.3 	"/>
	<line class="st3" x1="89.4" y1="103.6" x2="94.6" y2="106.5"/>
	<polyline class="st0" points="16.6,196.3 215.3,196.3 215.3,5.5 16.6,5.5 16.6,196.3 	"/>
	<line class="st3" x1="98.4" y1="108.8" x2="103.4" y2="111.7"/>
	<polyline class="st0" points="16.6,196.3 215.3,196.3 215.3,5.5 16.6,5.5 16.6,196.3 	"/>
	<polyline class="st3" points="96.8,115.4 89.4,111.2 89.4,103.6 	"/>
	<polyline class="st0" points="16.6,196.3 215.3,196.3 215.3,5.5 16.6,5.5 16.6,196.3 	"/>
	<line class="st3" x1="43.3" y1="130.2" x2="52.7" y2="124.8"/>
	<polyline class="st0" points="16.6,196.3 215.3,196.3 215.3,5.5 16.6,5.5 16.6,196.3 	"/>
	<line class="st3" x1="56.6" y1="122.6" x2="64.4" y2="118"/>
	<polyline class="st0" points="16.6,196.3 215.3,196.3 215.3,5.5 16.6,5.5 16.6,196.3 	"/>
	<line class="st3" x1="68.3" y1="115.8" x2="76.1" y2="111.3"/>
	<polyline class="st0" points="16.6,196.3 215.3,196.3 215.3,5.5 16.6,5.5 16.6,196.3 	"/>
	<line class="st3" x1="80" y1="109" x2="89.4" y2="103.6"/>
	<polyline class="st0" points="16.6,196.3 215.3,196.3 215.3,5.5 16.6,5.5 16.6,196.3 	"/>
	<line class="st3" x1="89.4" y1="111.2" x2="83.4" y2="114.7"/>
	<polyline class="st0" points="16.6,196.3 215.3,196.3 215.3,5.5 16.6,5.5 16.6,196.3 	"/>
	<line class="st3" x1="79.4" y1="117" x2="71.6" y2="121.4"/>
	<polyline class="st0" points="16.6,196.3 215.3,196.3 215.3,5.5 16.6,5.5 16.6,196.3 	"/>
	<line class="st3" x1="67.8" y1="123.7" x2="60" y2="128.1"/>
	<polyline class="st0" points="16.6,196.3 215.3,196.3 215.3,5.5 16.6,5.5 16.6,196.3 	"/>
	<polyline class="st3" points="56,130.4 49.9,133.9 43.3,130.2 	"/>
	<polyline class="st0" points="16.6,196.3 215.3,196.3 215.3,5.5 16.6,5.5 16.6,196.3 	"/>
	<line class="st3" x1="57.4" y1="138.3" x2="52.3" y2="135.3"/>
	<polyline class="st0" points="16.6,196.3 215.3,196.3 215.3,5.5 16.6,5.5 16.6,196.3 	"/>
	<line class="st3" x1="48.4" y1="133.2" x2="43.3" y2="130.2"/>
	<polyline class="st0" points="16.6,196.3 215.3,196.3 215.3,5.5 16.6,5.5 16.6,196.3 	"/>
	<line class="st3" x1="49.9" y1="133.9" x2="57.4" y2="138.2"/>
	<polyline class="st0" points="16.6,196.3 215.3,196.3 215.3,5.5 16.6,5.5 16.6,196.3 	"/>
	<line class="st3" x1="57.4" y1="107.8" x2="57.4" y2="114.1"/>
	<polyline class="st0" points="16.6,196.3 215.3,196.3 215.3,5.5 16.6,5.5 16.6,196.3 	"/>
	<line class="st3" x1="57.4" y1="118.5" x2="57.4" y2="127.5"/>
	<polyline class="st0" points="16.6,196.3 215.3,196.3 215.3,5.5 16.6,5.5 16.6,196.3 	"/>
	<line class="st3" x1="57.4" y1="132.1" x2="57.4" y2="138.3"/>
	<polyline class="st0" points="16.6,196.3 215.3,196.3 215.3,5.5 16.6,5.5 16.6,196.3 	"/>
	<line class="st2" x1="41.4" y1="98.6" x2="47.4" y2="102.1"/>
	<polyline class="st0" points="16.6,196.3 215.3,196.3 215.3,5.5 16.6,5.5 16.6,196.3 	"/>
	<line class="st2" x1="51.4" y1="104.4" x2="57.4" y2="107.8"/>
	<polyline class="st0" points="16.6,196.3 215.3,196.3 215.3,5.5 16.6,5.5 16.6,196.3 	"/>
	<line class="st3" x1="41.4" y1="98.6" x2="41.8" y2="105.4"/>
	<polyline class="st0" points="16.6,196.3 215.3,196.3 215.3,5.5 16.6,5.5 16.6,196.3 	"/>
	<line class="st3" x1="42.1" y1="109.9" x2="42.6" y2="118.9"/>
	<polyline class="st0" points="16.6,196.3 215.3,196.3 215.3,5.5 16.6,5.5 16.6,196.3 	"/>
	<line class="st3" x1="43" y1="123.4" x2="43.3" y2="130.2"/>
	<polyline class="st0" points="16.6,196.3 215.3,196.3 215.3,5.5 16.6,5.5 16.6,196.3 	"/>
	<line class="st3" x1="105.4" y1="80.1" x2="105" y2="87"/>
	<polyline class="st0" points="16.6,196.3 215.3,196.3 215.3,5.5 16.6,5.5 16.6,196.3 	"/>
	<line class="st3" x1="104.6" y1="91.4" x2="104.2" y2="100.4"/>
	<polyline class="st0" points="16.6,196.3 215.3,196.3 215.3,5.5 16.6,5.5 16.6,196.3 	"/>
	<line class="st3" x1="103.9" y1="105" x2="103.4" y2="111.7"/>
	<polyline class="st0" points="16.6,196.3 215.3,196.3 215.3,5.5 16.6,5.5 16.6,196.3 	"/>
	<line class="st2" x1="57.4" y1="107.8" x2="61.8" y2="105.2"/>
	<polyline class="st0" points="16.6,196.3 215.3,196.3 215.3,5.5 16.6,5.5 16.6,196.3 	"/>
	<line class="st2" x1="65.8" y1="102.9" x2="73.6" y2="98.5"/>
	<polyline class="st0" points="16.6,196.3 215.3,196.3 215.3,5.5 16.6,5.5 16.6,196.3 	"/>
	<line class="st2" x1="77.5" y1="96.2" x2="85.3" y2="91.8"/>
	<polyline class="st0" points="16.6,196.3 215.3,196.3 215.3,5.5 16.6,5.5 16.6,196.3 	"/>
	<line class="st2" x1="89.2" y1="89.5" x2="97" y2="85"/>
	<polyline class="st0" points="16.6,196.3 215.3,196.3 215.3,5.5 16.6,5.5 16.6,196.3 	"/>
	<line class="st2" x1="100.9" y1="82.8" x2="105.4" y2="80.1"/>
	<polyline class="st0" points="16.6,196.3 215.3,196.3 215.3,5.5 16.6,5.5 16.6,196.3 	"/>
	<path class="st3" d="M165,84.7c27-15.6,27-40.9,0-56.5c-27.1-15.5-70.9-15.5-98,0c-27,15.6-27,40.9,0,56.5
		C94.1,100.2,137.9,100.2,165,84.7"/>
	<polyline class="st0" points="16.6,196.3 215.3,196.3 215.3,5.5 16.6,5.5 16.6,196.3 	"/>
	<polyline class="st3" points="174.5,116.2 174.5,116.7 174.5,117.1 174.5,117.6 174.5,118 174.5,118.6 174.5,119.1 174.5,119.5 
		174.5,120 	"/>
	<polyline class="st0" points="16.6,196.3 215.3,196.3 215.3,5.5 16.6,5.5 16.6,196.3 	"/>
	<line class="st2" x1="174.5" y1="120" x2="170" y2="122.5"/>
	<polyline class="st0" points="16.6,196.3 215.3,196.3 215.3,5.5 16.6,5.5 16.6,196.3 	"/>
	<line class="st2" x1="166.1" y1="124.8" x2="158.3" y2="129.2"/>
	<polyline class="st0" points="16.6,196.3 215.3,196.3 215.3,5.5 16.6,5.5 16.6,196.3 	"/>
	<line class="st2" x1="154.3" y1="131.5" x2="146.5" y2="136"/>
	<polyline class="st0" points="16.6,196.3 215.3,196.3 215.3,5.5 16.6,5.5 16.6,196.3 	"/>
	<line class="st2" x1="142.7" y1="138.2" x2="134.9" y2="142.8"/>
	<polyline class="st0" points="16.6,196.3 215.3,196.3 215.3,5.5 16.6,5.5 16.6,196.3 	"/>
	<line class="st2" x1="130.9" y1="145" x2="126.5" y2="147.6"/>
	<polyline class="st0" points="16.6,196.3 215.3,196.3 215.3,5.5 16.6,5.5 16.6,196.3 	"/>
	<polyline class="st3" points="126.5,147.6 126.4,147.2 126.2,146.8 125.9,146.6 125.5,146.4 125,146.1 124.4,145.9 123.8,145.8 
		123.2,145.8 	"/>
	<polyline class="st0" points="16.6,196.3 215.3,196.3 215.3,5.5 16.6,5.5 16.6,196.3 	"/>
	<polyline class="st3" points="190.4,129.1 190.6,128.7 190.7,128.4 191,128.1 191.4,127.9 191.9,127.6 192.5,127.4 193.1,127.4 
		193.7,127.3 	"/>
	<polyline class="st0" points="16.6,196.3 215.3,196.3 215.3,5.5 16.6,5.5 16.6,196.3 	"/>
	<line class="st2" x1="126.5" y1="147.6" x2="132.5" y2="151"/>
	<polyline class="st0" points="16.6,196.3 215.3,196.3 215.3,5.5 16.6,5.5 16.6,196.3 	"/>
	<line class="st2" x1="136.3" y1="153.3" x2="142.4" y2="156.8"/>
	<polyline class="st0" points="16.6,196.3 215.3,196.3 215.3,5.5 16.6,5.5 16.6,196.3 	"/>
	<polyline class="st3" points="142.4,156.1 142.4,156.2 142.4,156.4 142.4,156.8 	"/>
	<polyline class="st0" points="16.6,196.3 215.3,196.3 215.3,5.5 16.6,5.5 16.6,196.3 	"/>
	<line class="st3" x1="126.5" y1="147.6" x2="126.8" y2="153"/>
	<polyline class="st0" points="16.6,196.3 215.3,196.3 215.3,5.5 16.6,5.5 16.6,196.3 	"/>
	<line class="st3" x1="127.1" y1="157.4" x2="127.3" y2="162.8"/>
	<polyline class="st0" points="16.6,196.3 215.3,196.3 215.3,5.5 16.6,5.5 16.6,196.3 	"/>
	<line class="st1" x1="127.3" y1="162.8" x2="128.4" y2="179.1"/>
	<polyline class="st0" points="16.6,196.3 215.3,196.3 215.3,5.5 16.6,5.5 16.6,196.3 	"/>
	<polyline class="st3" points="105.4,80.1 105.5,79.8 105.6,79.4 106,79.2 106.3,78.9 106.8,78.7 107.4,78.4 108,78.4 108.6,78.3 	
		"/>
	<polyline class="st0" points="16.6,196.3 215.3,196.3 215.3,5.5 16.6,5.5 16.6,196.3 	"/>
	<polyline class="st3" points="57.4,107.8 57.4,107.5 57.4,107.2 57.4,107.1 	"/>
	<polyline class="st0" points="16.6,196.3 215.3,196.3 215.3,5.5 16.6,5.5 16.6,196.3 	"/>
	<line class="st2" x1="105.4" y1="80.1" x2="99.4" y2="76.6"/>
	<polyline class="st0" points="16.6,196.3 215.3,196.3 215.3,5.5 16.6,5.5 16.6,196.3 	"/>
	<line class="st2" x1="95.4" y1="74.5" x2="89.4" y2="71"/>
	<polyline class="st0" points="16.6,196.3 215.3,196.3 215.3,5.5 16.6,5.5 16.6,196.3 	"/>
	<polyline class="st3" points="89.4,71 89.4,70.5 89.4,70.2 89.4,69.7 89.4,69.1 89.4,68.6 89.4,68.1 89.4,67.8 89.4,67.3 	"/>
	<polyline class="st0" points="16.6,196.3 215.3,196.3 215.3,5.5 16.6,5.5 16.6,196.3 	"/>
	<line class="st2" x1="89.4" y1="71" x2="85" y2="73.5"/>
	<polyline class="st0" points="16.6,196.3 215.3,196.3 215.3,5.5 16.6,5.5 16.6,196.3 	"/>
	<line class="st2" x1="81" y1="75.8" x2="73.2" y2="80.2"/>
	<polyline class="st0" points="16.6,196.3 215.3,196.3 215.3,5.5 16.6,5.5 16.6,196.3 	"/>
	<line class="st2" x1="69.4" y1="82.5" x2="61.6" y2="87.1"/>
	<polyline class="st0" points="16.6,196.3 215.3,196.3 215.3,5.5 16.6,5.5 16.6,196.3 	"/>
	<line class="st2" x1="57.6" y1="89.2" x2="49.8" y2="93.8"/>
	<polyline class="st0" points="16.6,196.3 215.3,196.3 215.3,5.5 16.6,5.5 16.6,196.3 	"/>
	<line class="st2" x1="46" y1="96.1" x2="41.4" y2="98.6"/>
	<polyline class="st0" points="16.6,196.3 215.3,196.3 215.3,5.5 16.6,5.5 16.6,196.3 	"/>
	<polyline class="st3" points="41.4,98.6 41.3,98.2 41.2,97.9 40.8,97.6 40.4,97.4 40,97.2 39.4,96.9 38.8,96.9 38.2,96.8 	"/>
	<polyline class="st0" points="16.6,196.3 215.3,196.3 215.3,5.5 16.6,5.5 16.6,196.3 	"/>
	<line class="st3" x1="89.4" y1="71" x2="89.4" y2="78.3"/>
	<polyline class="st0" points="16.6,196.3 215.3,196.3 215.3,5.5 16.6,5.5 16.6,196.3 	"/>
	<line class="st3" x1="89.4" y1="82.8" x2="89.4" y2="91.8"/>
	<polyline class="st0" points="16.6,196.3 215.3,196.3 215.3,5.5 16.6,5.5 16.6,196.3 	"/>
	<line class="st3" x1="89.4" y1="96.3" x2="89.4" y2="103.6"/>
	<polyline class="st0" points="16.6,196.3 215.3,196.3 215.3,5.5 16.6,5.5 16.6,196.3 	"/>
	<polyline class="st1" points="195.7,58.4 195,55.8 194.2,53.2 193.2,50.7 191.9,48.3 190.6,45.9 189,43.6 187.3,41.5 185.5,39.4 
		183.6,37.4 181.6,35.5 179.3,33.7 177,31.9 174.6,30.2 172.2,28.6 169.6,27.1 166.9,25.8 164.2,24.3 161.3,23.1 158.4,21.9 
		155.4,20.8 152.3,19.9 149.2,18.9 146,18.1 142.8,17.4 139.6,16.6 136.3,16 133,15.6 129.6,15.2 126.1,14.8 122.8,14.7 119.4,14.6 
		115.9,14.5 112.4,14.6 109.1,14.7 105.7,14.8 102.2,15.2 98.9,15.6 95.5,16 92.3,16.6 89,17.4 85.8,18.1 82.6,18.9 79.6,19.9 
		76.4,20.8 73.4,21.9 70.6,23.1 67.7,24.3 64.9,25.8 62.3,27.1 59.6,28.6 57.2,30.2 54.8,31.9 52.6,33.7 50.3,35.5 48.2,37.4 
		46.3,39.4 44.5,41.5 42.8,43.6 41.3,45.9 40,48.3 38.6,50.7 37.7,53.2 36.8,55.8 36.1,58.4 26.3,103.4 25.8,106.3 25.6,109.2 
		25.7,112 25.9,114.9 26.5,117.8 27.4,120.7 28.4,123.4 29.8,126.2 31.3,129 33.1,131.6 35.2,134.1 37.4,136.6 40,139 42.7,141.3 
		45.6,143.5 48.6,145.6 52,147.7 55.3,149.6 58.9,151.4 62.8,153.1 66.6,154.6 70.7,156.1 74.9,157.4 79.1,158.6 83.5,159.7 
		88,160.6 92.5,161.4 97.1,162.1 101.8,162.6 106.4,162.9 111.2,163.2 115.9,163.2 120.6,163.2 125.4,162.9 130.1,162.6 
		134.8,162.1 139.3,161.4 143.9,160.6 148.3,159.7 152.8,158.6 157,157.4 161.2,156.1 165.2,154.6 169.1,153.1 172.9,151.4 
		176.5,149.6 179.9,147.7 183.2,145.6 186.2,143.5 189.1,141.3 191.9,139 194.4,136.6 196.7,134.1 198.7,131.6 200.5,129 
		202.1,126.2 203.4,123.4 204.5,120.7 205.3,117.8 205.9,114.9 206.2,112 206.3,109.2 206,106.3 205.6,103.4 195.7,58.4 	"/>
	<polyline class="st0" points="16.6,196.3 215.3,196.3 215.3,5.5 16.6,5.5 16.6,196.3 	"/>
	<line class="st3" x1="125.5" y1="146.4" x2="132" y2="150.1"/>
	<polyline class="st0" points="16.6,196.3 215.3,196.3 215.3,5.5 16.6,5.5 16.6,196.3 	"/>
	<polyline class="st3" points="136,152.4 142.4,156.1 147.4,153.2 	"/>
	<polyline class="st0" points="16.6,196.3 215.3,196.3 215.3,5.5 16.6,5.5 16.6,196.3 	"/>
	<line class="st3" x1="151.3" y1="150.9" x2="159.1" y2="146.5"/>
	<polyline class="st0" points="16.6,196.3 215.3,196.3 215.3,5.5 16.6,5.5 16.6,196.3 	"/>
	<line class="st3" x1="163" y1="144.2" x2="170.8" y2="139.6"/>
	<polyline class="st0" points="16.6,196.3 215.3,196.3 215.3,5.5 16.6,5.5 16.6,196.3 	"/>
	<line class="st3" x1="174.7" y1="137.5" x2="182.5" y2="132.9"/>
	<polyline class="st0" points="16.6,196.3 215.3,196.3 215.3,5.5 16.6,5.5 16.6,196.3 	"/>
	<line class="st3" x1="186.4" y1="130.8" x2="191.4" y2="127.9"/>
	<polyline class="st0" points="16.6,196.3 215.3,196.3 215.3,5.5 16.6,5.5 16.6,196.3 	"/>
	<line class="st3" x1="57.4" y1="107.1" x2="62.3" y2="104.2"/>
	<polyline class="st0" points="16.6,196.3 215.3,196.3 215.3,5.5 16.6,5.5 16.6,196.3 	"/>
	<line class="st3" x1="66.2" y1="102" x2="74" y2="97.5"/>
	<polyline class="st0" points="16.6,196.3 215.3,196.3 215.3,5.5 16.6,5.5 16.6,196.3 	"/>
	<line class="st3" x1="77.9" y1="95.2" x2="85.7" y2="90.8"/>
	<polyline class="st0" points="16.6,196.3 215.3,196.3 215.3,5.5 16.6,5.5 16.6,196.3 	"/>
	<line class="st3" x1="89.6" y1="88.5" x2="97.4" y2="84"/>
	<polyline class="st0" points="16.6,196.3 215.3,196.3 215.3,5.5 16.6,5.5 16.6,196.3 	"/>
	<line class="st3" x1="101.4" y1="81.8" x2="106.3" y2="78.9"/>
	<polyline class="st0" points="16.6,196.3 215.3,196.3 215.3,5.5 16.6,5.5 16.6,196.3 	"/>
	<line class="st3" x1="40.4" y1="97.4" x2="46.9" y2="101.1"/>
	<polyline class="st0" points="16.6,196.3 215.3,196.3 215.3,5.5 16.6,5.5 16.6,196.3 	"/>
	<line class="st3" x1="50.9" y1="103.4" x2="57.4" y2="107.1"/>
</g>
<line class="st2" x1="336.6" y1="116.2" x2="336.6" y2="82"/>
<line class="st2" x1="404.5" y1="116.2" x2="404.5" y2="82"/>
<line class="st2" x1="346.6" y1="87.7" x2="394.6" y2="87.7"/>
<polygon points="346.6,86 346.6,89.4 336.6,87.7 "/>
<polygon class="st0" points="346.6,86 346.6,89.4 336.6,87.7 "/>
<polygon points="394.6,86 394.6,89.4 404.5,87.7 "/>
<polygon class="st0" points="394.6,86 394.6,89.4 404.5,87.7 "/>
<g>
	<text transform="matrix(1 0 0 1 366.7197 83.2397)" class="st4 st5">3</text>
</g>
<line class="st2" x1="370.6" y1="170.5" x2="370.6" y2="112"/>
<line class="st2" x1="403" y1="166.3" x2="402.1" y2="192"/>
<line class="st2" x1="370.6" y1="176.1" x2="370.6" y2="191.4"/>
<line class="st2" x1="422" y1="187.2" x2="412.2" y2="186.7"/>
<line class="st2" x1="360.7" y1="185.8" x2="350.8" y2="186"/>
<polyline class="st2" points="402.2,186.3 386.4,185.8 370.6,185.7 "/>
<polygon points="412.1,188.4 412.2,185 402.2,186.3 "/>
<polygon class="st0" points="412.1,188.4 412.2,185 402.2,186.3 "/>
<polygon points="360.6,184.2 360.7,187.4 370.6,185.7 "/>
<polygon class="st0" points="360.6,184.2 360.7,187.4 370.6,185.7 "/>
<g>
	<text transform="matrix(0.9998 1.822070e-002 -1.822070e-002 0.9998 380.0392 181.5202)" class="st4 st6">2°</text>
</g>
<line class="st2" x1="540" y1="116.2" x2="540" y2="92.7"/>
<line class="st2" x1="562.4" y1="116.2" x2="562.4" y2="92.7"/>
<line class="st2" x1="530" y1="98.4" x2="520.1" y2="98.4"/>
<line class="st2" x1="572.4" y1="98.4" x2="582.4" y2="98.4"/>
<line class="st2" x1="540" y1="98.4" x2="562.4" y2="98.4"/>
<polygon points="530,96.7 530,100 540,98.4 "/>
<polygon class="st0" points="530,96.7 530,100 540,98.4 "/>
<polygon points="572.4,96.7 572.4,100 562.4,98.4 "/>
<polygon class="st0" points="572.4,96.7 572.4,100 562.4,98.4 "/>
<g>
	<text transform="matrix(1 0 0 1 547.9199 94.1602)" class="st4 st5">1</text>
</g>
<line class="st2" x1="690.6" y1="119.7" x2="740.2" y2="119.7"/>
<line class="st2" x1="682.3" y1="165.1" x2="740.2" y2="165.1"/>
<line class="st2" x1="734.4" y1="129.7" x2="734.4" y2="155.2"/>
<polygon points="732.8,129.7 736.1,129.7 734.4,119.7 "/>
<polygon class="st0" points="732.8,129.7 736.1,129.7 734.4,119.7 "/>
<polygon points="732.8,155.2 736.1,155.2 734.4,165.1 "/>
<polygon class="st0" points="732.8,155.2 736.1,155.2 734.4,165.1 "/>
<g>
	<text transform="matrix(-6.123234e-017 -1 1 -6.123234e-017 730.2002 146.1201)" class="st4 st5">2</text>
</g>
<line class="st2" x1="295.7" y1="51.7" x2="243.7" y2="51.7"/>
<line class="st2" x1="277" y1="119.7" x2="243.7" y2="119.7"/>
<line class="st2" x1="249.4" y1="61.6" x2="249.4" y2="109.9"/>
<polygon points="247.7,61.6 251,61.6 249.4,51.7 "/>
<polygon class="st0" points="247.7,61.6 251,61.6 249.4,51.7 "/>
<polygon points="247.7,109.9 251,109.9 249.4,119.7 "/>
<polygon class="st0" points="247.7,109.9 251,109.9 249.4,119.7 "/>
<g>
	<text transform="matrix(-6.123234e-017 -1 1 -6.123234e-017 244.9199 89.5996)" class="st4 st5">3</text>
</g>
<line class="st2" x1="280.3" y1="111.8" x2="280.1" y2="34.3"/>
<line class="st2" x1="460.8" y1="111.4" x2="460.7" y2="33.8"/>
<line class="st2" x1="290" y1="39.9" x2="450.7" y2="39.6"/>
<polygon points="290,38.2 290,41.5 280.2,39.9 "/>
<polygon class="st0" points="290,38.2 290,41.5 280.2,39.9 "/>
<polygon points="450.7,37.9 450.7,41.1 460.7,39.4 "/>
<polygon class="st0" points="450.7,37.9 450.7,41.1 460.7,39.4 "/>
<g>
	<text transform="matrix(1 0 0 1 366.5996 35.3599)" class="st4 st5">8</text>
</g>
</svg>
