<?xml version="1.0" encoding="UTF-8" standalone="no"?>
<svg xmlns:svg="http://www.w3.org/2000/svg" xmlns="http://www.w3.org/2000/svg" xmlns:xlink="http://www.w3.org/1999/xlink"
     version="1.0" width="400" height="400" viewBox="0,0, 400,400" id="svg2">
  <defs>
    <linearGradient id="linearGradient11">
      <stop style="stop-color:#DFE5ED;stop-opacity:1" offset="0" />
      <stop style="stop-color:#A5B1C1;stop-opacity:1" offset="1" />
    </linearGradient>
    <linearGradient id="linearGradient1" xlink:href="#linearGradient11" gradientUnits="userSpaceOnUse"
         x1="127" y1="59"    x2="92"  y2="139" />
    <symbol id="sym1">
      <g style="fill-opacity:1; fill-rule:nonzero; stroke:#000000; stroke-miterlimit:4; stroke-opacity:1;">
        <path d="M 80,0 L 90,10 L 90,90 L 80,80 z" style="fill :#A9B9CF; stroke-width :1;" />
        <path d="M 0,80 L 80,80 L 90,90 L 10,90 z" style="fill :#90A5C1; stroke-width :1;" />
        <rect x="0" y="0" width="80" height="80"   style="fill :url(#linearGradient1);fill-opacity :1; stroke-width :1; stroke-dasharray:none;" />
      </g>
    </symbol>
  </defs>
  <g style="fill-opacity :1; fill-rule :evenodd; stroke-linejoin :miter; stroke-miterlimit :4;
            stroke-opacity :1;stroke-dasharray :none; stroke-linecap :butt; stroke:#000000; stroke-width:1.5;">
    <rect id="backwood"  x="22" y="22" width="348" height="348"  style="fill :#E3B074;" /> 
    <rect id="topinner"  x="18" y="18" width="352" height="16"   style="fill :#B27125;" />
    <path id="leftinner" d="M 18,18 L 34,34 L 34,370 L 18,370 z" style="fill :#DDA15B;" />
  </g>
  <g transform="translate(24,24)">
    <use transform="translate(  0,0)"   id="use11" x="0" y="0" width="400" height="400" xlink:href="#sym1" />
    <use transform="translate( 86,0)"   id="use12" x="0" y="0" width="400" height="400" xlink:href="#sym1" />
    <use transform="translate(172,0)"   id="use13" x="0" y="0" width="400" height="400" xlink:href="#sym1" />
    <use transform="translate(258,0)"   id="use14" x="0" y="0" width="400" height="400" xlink:href="#sym1" />
    <use transform="translate(  0,86)"  id="use21" x="0" y="0" width="400" height="400" xlink:href="#sym1" />
    <use transform="translate( 86,86)"  id="use22" x="0" y="0" width="400" height="400" xlink:href="#sym1" />
    <use transform="translate(172,86)"  id="use23" x="0" y="0" width="400" height="400" xlink:href="#sym1" />
    <use transform="translate(258,86)"  id="use24" x="0" y="0" width="400" height="400" xlink:href="#sym1" />
    <use transform="translate(  0,172)" id="use31" x="0" y="0" width="400" height="400" xlink:href="#sym1" />
    <use transform="translate( 86,172)" id="use32" x="0" y="0" width="400" height="400" xlink:href="#sym1" />
    <use transform="translate(172,172)" id="use33" x="0" y="0" width="400" height="400" xlink:href="#sym1" />
    <use transform="translate(258,172)" id="use34" x="0" y="0" width="400" height="400" xlink:href="#sym1" />
    <use transform="translate(  0,258)" id="use41" x="0" y="0" width="400" height="400" xlink:href="#sym1" />
    <use transform="translate( 86,258)" id="use42" x="0" y="0" width="400" height="400" xlink:href="#sym1" />
    <use transform="translate(172,258)" id="use43" x="0" y="0" width="400" height="400" xlink:href="#sym1" />
<!--  gap    <use transform="translate(258,258)" id="use44" x="0" y="0" width="400" height="400" xlink:href="#sym1" /> -->
  </g>
  <g style="fill-opacity :1; fill-rule :evenodd; stroke-linejoin :miter; stroke-miterlimit :4;
            stroke-opacity :1;stroke-dasharray :none; stroke-linecap :butt; stroke :#000000; stroke-width :1.5;">
    <path id="rightoutside"  d="M 370,8 L 392,30 L 392,392 L 370,370 z" style="fill:#DDA15B;" />
    <path id="bottomoutside" d="M 8,370 L 370,370 L 392,392 L 30,392 z" style="fill:#B27125;" />
    <path id="framearea"     d="M 8,8 L 370,8 L 370,370, L 8,370 L 8,8 M 18,18 L 18,360 L 360,360 L 360,18 L 18,18 M 8,8 z" style="fill:#E8BF8F;fill-rule :nonzero;"/>
  </g>
  <g transform="translate(24,24)">
    <text xml:space="preserve" style="font-size :40px; text-anchor :middle; fill :#000000; stroke :none; font-family :Verdana, serif; font-weight:bold;"><!--
   --><tspan  x="40" y="54" >1</tspan><!--
   --><tspan x="126" y="54" >2</tspan><!--
   --><tspan x="212" y="54" >3</tspan><!--
   --><tspan x="298" y="54" >4</tspan><!--
   --><tspan  x="40" y="140">5</tspan><!--
   --><tspan x="126" y="140">6</tspan><!--
   --><tspan x="212" y="140">7</tspan><!--
   --><tspan x="298" y="140">8</tspan><!--
   --><tspan  x="40" y="226">9</tspan><!--
   --><tspan x="126" y="226">10</tspan><!--
   --><tspan x="212" y="226">11</tspan><!--
   --><tspan x="298" y="226">12</tspan><!--
   --><tspan  x="40" y="312">13</tspan><!--
   --><tspan x="126" y="312">14</tspan><!--
   --><tspan x="212" y="312">15</tspan><!--
   --><tspan x="298" y="312"></tspan><!--
 --></text>
  </g>
</svg>
